<svg id="Icon_insta" xmlns="http://www.w3.org/2000/svg" width="20" height="20" viewBox="0 0 20 20">
  <rect id="Rectangle_428" data-name="Rectangle 428" width="20" height="20" fill="#faa8a8" opacity="0"></rect>
  <g id="XMLID_80_" transform="translate(1 1)">
    <g id="XMLID_35_">
      <path id="XMLID_38_" d="M156.594,148.33h-7.621a5.2,5.2,0,0,0-5.2,5.2v7.621a5.2,5.2,0,0,0,5.2,5.2h7.621a5.2,5.2,0,0,0,5.2-5.2v-7.62A5.2,5.2,0,0,0,156.594,148.33Zm3.543,12.958a3.454,3.454,0,0,1-3.454,3.454h-7.8a3.454,3.454,0,0,1-3.454-3.454v-7.8a3.454,3.454,0,0,1,3.454-3.454h7.8a3.454,3.454,0,0,1,3.454,3.454v7.8Z" transform="translate(-143.77 -148.33)" fill="#fff"></path>
      <path id="XMLID_41_" d="M234.557,235.33a4.677,4.677,0,1,0,4.678,4.678A4.678,4.678,0,0,0,234.557,235.33Zm0,7.71a3.032,3.032,0,1,1,3.032-3.032A3.032,3.032,0,0,1,234.557,243.04Z" transform="translate(-225.544 -230.949)" fill="#fff"></path>
      <circle id="XMLID_42_" cx="1.09" cy="1.09" r="1.09" transform="translate(12.758 3.113)" fill="#fff"></circle>
    </g>
  </g>
</svg>