<svg id="Icon_linkedin" xmlns="http://www.w3.org/2000/svg" width="20" height="20" viewBox="0 0 20 20">
  <rect id="Rectangle_431" data-name="Rectangle 431" width="20" height="20" fill="#faa8a8" opacity="0"></rect>
  <g id="layer1_1_" transform="translate(1 1)">
    <g id="g3019" transform="translate(0 0)">
      <path id="path28_1_" d="M78.432-35.78V-47.942H74.389v12.163h4.043ZM76.411-49.6A2.109,2.109,0,0,0,78.7-51.7a2.1,2.1,0,0,0-2.261-2.1,2.109,2.109,0,0,0-2.287,2.1,2.093,2.093,0,0,0,2.234,2.1Z" transform="translate(-74.15 53.804)" fill="#fff"></path>
      <path id="path30_1_" d="M131.094,7.364h4.043V.572a2.781,2.781,0,0,1,.133-.986,2.212,2.212,0,0,1,2.073-1.479c1.463,0,2.048,1.116,2.048,2.751V7.364h4.043V.39c0-3.736-1.994-5.474-4.654-5.474a4.028,4.028,0,0,0-3.671,2.049h.027V-4.8h-4.043c.055,1.14,0,12.161,0,12.161Z" transform="translate(-124.576 10.66)" fill="#fff"></path>
    </g>
  </g>
</svg>