<svg id="Icon_vimeo" xmlns="http://www.w3.org/2000/svg" width="20" height="20" viewBox="0 0 20 20">
  <rect id="Rectangle_430" data-name="Rectangle 430" width="20" height="20" fill="#faa8a8" opacity="0"></rect>
  <g id="Group_3471" data-name="Group 3471" transform="translate(0 2)">
    <path id="Path_35421" data-name="Path 35421" d="M149.751,158.974a2.855,2.855,0,0,0-.369-2.333c-.717-.906-2.241-.94-3.285-.779a6.893,6.893,0,0,0-4.7,4.433c1.733-.131,2.641.125,2.474,2.033a7.008,7.008,0,0,1-.924,2.511c-.519.967-1.494,2.864-2.772,1.5-1.151-1.231-1.065-3.585-1.328-5.153a21.43,21.43,0,0,0-.59-2.881,2.94,2.94,0,0,0-1.515-1.919,3.1,3.1,0,0,0-2.216.443,39.945,39.945,0,0,0-4.544,3.656v.112c.3.284.377.749.813.811,1.029.152,2.011-.96,2.7.2a11.866,11.866,0,0,1,.813,2.243c.356,1.015.632,2.12.924,3.285.494,1.975,1.1,4.929,2.807,5.652a3.683,3.683,0,0,0,2.844-.518,15.869,15.869,0,0,0,4.393-4.172A28.418,28.418,0,0,0,149.751,158.974Z" transform="translate(-129.98 -155.787)" fill="#fff"></path>
  </g>
</svg>