<svg xmlns="http://www.w3.org/2000/svg" xmlns:xlink="http://www.w3.org/1999/xlink" width="1440" height="546" viewBox="0 0 1440 546">
  <defs>
    <clipPath id="clip-path">
      <rect id="Rectangle_607" data-name="Rectangle 607" width="1440" height="546" fill="#c93737"/>
    </clipPath>
  </defs>
  <g id="Texture_darkgrey_1" data-name="Texture_darkgrey 1" transform="translate(0 -900)">
    <path id="Path_38265" data-name="Path 38265" d="M0,0H1440V546H0Z" transform="translate(0 900)" fill="#333"/>
    <g id="Mask_Group_510" data-name="Mask Group 510" transform="translate(0 900)" opacity="0.1" clip-path="url(#clip-path)">
      <g id="Group_53879" data-name="Group 53879" transform="translate(0 0)">
        <path id="Union_6" data-name="Union 6" d="M1432.8,565l-3.4-1.78-21.2-11.089-1.8-.941V523.565l-7.8,4.082v27.625L1417.2,565h-14.4l-11.4-5.968V531.41l-7.8,4.082v27.623l3.6,1.885h-14.395l3.6-1.885V531.73l26.4-13.81-7.8-4.082-26.4,13.81v31.385L1357.2,565h-14.4l18.6-9.728V523.883l26.4-13.814-7.8-4.08-26.4,13.81V551.19L1327.2,565h-14.4l-7.8-4.084L1297.2,565h-14.4l15-7.847-7.8-4.084-17,8.892L1267.2,565h-14.4l-3.4-1.78-21.2-11.089-1.8-.941V523.565l-7.8,4.082v27.625L1237.2,565h-14.4l-11.4-5.968V531.41l-7.8,4.082v27.623l3.606,1.885h-14.4l3.6-1.885V531.73l26.4-13.81-7.8-4.082-26.4,13.81v31.385L1177.2,565h-14.4l18.605-9.728V523.883l26.4-13.814-7.8-4.08-26.4,13.81V551.19L1147.2,565h-14.4l-7.8-4.084L1117.2,565h-14.4l15-7.847-7.8-4.084-17,8.892L1087.2,565h-14.4l-3.4-1.78-21.2-11.089-1.8-.941V523.565l-7.8,4.082v27.625L1057.2,565h-14.4l-11.4-5.968V531.41l-7.8,4.082v27.623l3.6,1.885h-14.4l3.6-1.885V531.73l26.4-13.81-7.795-4.082-26.406,13.81v31.385L997.2,565H982.8l18.6-9.728V523.883l26.4-13.814-7.795-4.08L993.6,519.8V551.19L967.2,565H952.8l-7.8-4.084L937.2,565H922.8l15-7.847-7.795-4.084-17,8.892L907.2,565H892.8l-3.4-1.78L868.2,552.13l-1.8-.941V523.565l-7.8,4.082v27.625L877.2,565H862.8l-11.4-5.968V531.41l-7.8,4.082v27.623l2.531,1.326L847.2,565H832.8l3.6-1.885V531.73l26.4-13.81-7.8-4.082-26.4,13.81v31.385L817.2,565h-14.4l18.6-9.728V523.883l26.4-13.814-7.795-4.08L813.6,519.8V551.19L787.2,565H772.8L765,560.916,757.2,565H742.8l15-7.847-7.8-4.084-17,8.892L727.2,565H720v-3.77l30-15.694,26.4,13.812V551.19L750,537.375l-30,15.694v-7.533l30-15.7,26.4,13.81v-8.159L750,521.68l-26.4,13.812-1.8.943-1.8.941v-7.534l3.191-1.672L746.4,516.034V484.643l26.4-13.812L765,466.753l-26.4,13.814v31.385L720,521.68v-7.533l11.4-5.964V476.793l26.4-13.81-7.8-4.077-26.4,13.81v31.389l-3.6,1.883V467.065l26.4-13.81,1.8-.944,1.8-.939,26.4,13.812v-8.159L750,443.212l-30,15.694v-7.535l30-15.692,26.4,13.81v-8.167L750,427.517,721.8,442.27l-1.8.943V435.68l26.4-13.812V390.478l26.4-13.812L765,372.586,738.6,386.4v31.385L720,427.517v-7.534l11.4-5.964V382.63l26.4-13.812-7.8-4.08-26.4,13.81v31.391l-3.6,1.885V372.9l28.2-14.749,1.8-.944,26.4,13.812v-8.161L750,349.043l-30,15.694V357.2l30-15.694,26.4,13.812v-8.159L750,333.35l-26.4,13.812-1.8.937-1.8.944v-7.535l26.4-13.81V296.309L772.8,282.5,765,278.421l-26.4,13.81V323.62L720,333.35v-7.536l11.4-5.964V288.461l26.4-13.81-7.8-4.079-26.4,13.812v31.389l-3.6,1.881V278.733l30-15.694,26.4,13.81v-8.159L750,254.878l-30,15.693v-7.533l30-15.7,26.4,13.812v-8.163L750,239.185l-28.2,14.749-1.8.945v-7.535l2.211-1.16L746.4,233.533V202.144l26.4-13.812L765,184.25l-26.4,13.812v31.389l-18.6,9.73V231.65l11.4-5.964V194.3l26.4-13.812L750,176.4l-8.109,4.239L723.6,190.215V221.6l-3.6,1.889V184.568l17.025-8.908,11.172-5.847,1.8-.937,26.4,13.8v-8.159L750,160.709l-30,15.7v-7.529l30-15.7,26.4,13.812v-8.159L750,145.016l-5.619,2.938L720,160.709v-7.535l26.4-13.806V107.975l26.4-13.8L765,90.085,738.6,103.9v31.389l-18.6,9.73v-7.535l11.4-5.958V100.129l26.4-13.812L750,82.24,723.6,96.05v31.389L720,129.32V90.4l30-15.694,26.4,13.812V80.359L750,66.546,720,82.24V74.705l30-15.694,26.4,13.812V64.663L750,50.853l-10.379,5.426L721.8,65.6l-1.8.944V59.012l2.211-1.158L746.4,45.2V13.81L772.8,0h14.4L795,4.082,802.805,0h14.4l-15,7.847,7.8,4.084L832.8,0h14.4l24.6,12.868,1.8.943V41.435l7.8-4.082V9.73L862.8,0h14.4l11.4,5.966V33.582l7.8-4.075V1.881L892.8,0h14.4L903.6,1.881V33.27L877.2,47.083l7.8,4.082,26.4-13.812V5.966L922.8,0h14.4L918.6,9.73V41.119l-26.4,13.81,7.8,4.082,2.211-1.158L926.4,45.2l0-31.389L952.8,0h14.4L975,4.082,982.8,0h14.4l-15,7.847,7.8,4.084L1012.8,0h14.4l9.828,5.145,14.77,7.723,1.8.943V41.435l7.8-4.082V9.73L1042.8,0h14.4l11.4,5.966V33.582l7.8-4.075V1.881L1072.8,0h14.4l-3.6,1.881V33.27l-26.4,13.812,7.8,4.082,26.4-13.812V5.966L1102.8,0h14.4l-18.6,9.73V41.119l-26.4,13.81,7.8,4.082,16.449-8.607L1106.4,45.2V13.81L1132.8,0h14.4l7.8,4.082L1162.8,0h14.4l-15,7.847,7.8,4.084,11.891-6.222L1192.8,0h14.4l4.479,2.343L1231.8,12.868l1.8.943V41.435l7.8-4.082V9.73L1222.8,0h14.4l11.4,5.966V33.582l7.8-4.075V1.881L1252.8,0h14.4L1263.6,1.881V33.27l-26.4,13.812,7.8,4.082,26.4-13.812V5.966L1282.8,0h14.4l-18.6,9.73V41.119l-26.4,13.81,7.8,4.082L1286.4,45.2V13.81L1312.8,0h14.4l7.8,4.082L1342.8,0h14.4l-15,7.847,7.8,4.084L1372.807,0H1387.2l4.477,2.343L1411.8,12.868l1.8.943V41.435l7.8-4.082V9.73L1402.8,0h14.4l11.4,5.966V33.582l7.8-4.075V1.881L1432.8,0h7.2V35.157l-22.8,11.925,7.8,4.082,15-7.847v7.535l-7.8,4.077,7.8,4.082v7.535l-26.4-13.814v8.163l26.4,13.81V82.24l-26.4-13.812v8.159L1440,90.4V129.32l-22.8,11.929,7.8,4.077,15-7.845v7.535l-7.8,4.082,7.8,4.077v7.535L1413.6,146.9v8.165l26.4,13.814V176.4L1413.6,162.6v8.161l26.4,13.81v38.924l-22.8,11.923,7.8,4.082,15-7.847v7.531l-7.8,4.08,7.8,4.082v7.535l-26.4-13.81v8.159l26.4,13.812v7.533l-26.4-13.812v8.161l26.4,13.812v38.922l-22.8,11.929,7.8,4.079,15-7.843v7.531l-7.8,4.082,7.8,4.077v7.535l-26.4-13.812V343.4L1440,357.2v7.535l-26.4-13.812v8.165L1440,372.9v38.927l-22.8,11.925,7.8,4.082,15-7.849v7.534l-7.8,4.079,7.8,4.084v7.533L1413.6,429.4v8.161l26.4,13.81v7.535l-26.4-13.812v8.161l26.4,13.81v38.924l-22.8,11.931L1425,522l15-7.849v7.533l-7.8,4.084,7.8,4.077v7.534l-26.4-13.81v8.165l26.4,13.807v7.533l-26.4-13.81v8.163L1440,561.23V565Zm-199.2-17.579L1260,561.23l30-15.694,26.406,13.812V551.19L1290,537.375l-30,15.694-26.4-13.81Zm-180,0,26.406,13.808,30-15.694,26.4,13.812V551.19L1110,537.375l-30,15.694-26.406-13.81Zm-180,0L900,561.23l30-15.694,26.4,13.812V551.19l-26.4-13.814-30,15.694-26.4-13.81Zm420-59.01v27.623l28.2,14.751,1.8.944v27.619l7.8-4.077V527.647l-30-15.7V484.327Zm-180,0v27.623l28.2,14.751,1.8.944v27.619l7.8-4.077V527.647l-30-15.7,0-27.625Zm-180,0v27.623l28.2,14.751,1.8.944v27.619l7.8-4.077V527.647l-30-15.7V484.327Zm-180,0v27.623l28.2,14.751,1.8.944v27.619l7.8-4.077V527.647l-30-15.7V484.327Zm375-7.845v27.617l30,15.7V551.5l7.8-4.082V519.8l-21.689-11.345-6.512-3.409-1.8-.939V476.482Zm-180,0v27.617l30,15.7V551.5l7.8-4.082V519.8l-21.686-11.345-6.512-3.409-1.8-.939V476.482Zm-180,0v27.617l30,15.7V551.5l7.8-4.082V519.8l-21.686-11.345-6.514-3.409-1.8-.939V476.482Zm540,0v27.617l30,15.7V551.5l7.8-4.079V519.8l-21.683-11.345-6.512-3.409-1.807-.939V476.482Zm-75,51.163,26.4,13.807,30-15.7,26.406,13.81v-8.159l-14.859-7.773L1290,521.68l-30,15.7-26.4-13.81Zm-180,0,26.406,13.807,30-15.7,26.4,13.81v-8.159l-5.053-2.639L1110,521.68l-30,15.7-26.406-13.81Zm-180,0L900,545.536l30-15.7,26.4,13.81v-8.159l-26.4-13.812L903.6,535.492l-1.8.943-1.8.941-26.4-13.81Zm405-51.163v31.385l-26.4,13.812,7.8,4.077,10.988-5.745,15.41-8.062V484.643l26.4-13.812-7.8-4.079Zm-180,0v31.385l-26.4,13.812,7.8,4.077,26.4-13.807V484.643l26.4-13.812-7.8-4.079Zm-180,0v31.385l-26.4,13.812,7.8,4.077,3.2-1.672,23.2-12.135V484.643l26.4-13.812-7.8-4.079Zm345-7.851v31.389l-26.4,13.814L1245,522l26.4-13.812V476.793l26.4-13.81-7.8-4.077Zm-180,0v31.389l-26.4,13.814L1065,522l26.4-13.812V476.793l26.4-13.81-7.8-4.077Zm-180.006,0v31.389l-26.4,13.814,7.8,4.077,26.4-13.812V476.793l26.4-13.81-7.795-4.077Zm420,27.619,26.4,13.812,28.2-14.751h.006l1.8-.943,26.4,13.812v-8.161l-26.4-13.81-30,15.694-26.4-13.812Zm-180,0,26.4,13.812,28.2-14.751,1.8-.943,26.4,13.812v-8.161l-26.4-13.81-30,15.694-26.4-13.812Zm-180,0,26.406,13.812,28.2-14.751,1.8-.943,26.4,13.812v-8.161l-26.4-13.81-30,15.694L963.6,492.176Zm-180,0L810,514.147,838.2,499.4l1.8-.943,26.4,13.812v-8.161L840,490.295l-30,15.694-26.4-13.812Zm600-59.012v27.623l13.887,7.271L1411.8,483.7l1.8.941v27.623l7.8-4.082V480.567l-30-15.7V437.249Zm-180,0v27.623l13.887,7.271L1231.8,483.7l1.8.941v27.623l7.8-4.082V480.567l-30-15.7V437.249Zm-180,0v27.623l7,3.664,21.2,11.093,1.8.941v27.623l7.8-4.082V480.567l-30-15.7V437.249Zm-180,0v27.623l7,3.664L871.8,483.7l1.8.941v27.623l7.8-4.082V480.567l-30-15.7V437.249Zm555-7.847V461.1l30,15.692v27.625l7.8-4.077V472.716l-30-15.692V429.4Zm-180,0V461.1l30,15.692v27.625l7.8-4.082V472.716l-30-15.692V429.4Zm-180,0V461.1l30,15.692v27.625l7.8-4.082V472.716l-30-15.692V429.4Zm-180,0V461.1l30,15.692v27.625l7.8-4.077V472.716l-30-15.692V429.4Zm465,51.167,26.4,13.81,30-15.7,26.4,13.816v-8.163L1380,474.6l-30,15.7-26.4-13.812Zm-180,0,26.4,13.81,30-15.7,26.4,13.816v-8.163L1200,474.6l-30,15.7-26.4-13.812Zm-180,0,26.406,13.81,30-15.7,26.4,13.816v-8.163l-17-8.894L1020,474.6l-30,15.7L963.6,476.482Zm-180,0,26.4,13.81,30-15.7,26.4,13.816v-8.163l-17-8.894L840,474.6l-30,15.7-26.4-13.812Zm585-51.167v31.393l-26.4,13.806,7.8,4.082,26.4-13.812V437.561l26.4-13.812-7.8-4.077Zm-180,0v31.393l-26.4,13.806,7.8,4.082,26.4-13.812V437.561l26.4-13.812-7.8-4.077Zm-180,0v31.393l-26.4,13.806,7.8,4.082,26.4-13.812V437.561l26.4-13.812-7.795-4.077Zm-180,0v31.393l-26.4,13.806,7.8,4.082,26.4-13.812V437.561l26.4-13.812-7.8-4.077Zm525-7.841v31.389l-26.4,13.81,7.8,4.079,26.4-13.812V429.712l26.4-13.81-7.8-4.079Zm-180,0v31.389l-26.4,13.81,7.8,4.079,26.4-13.812V429.712l26.4-13.81-7.8-4.079Zm-180,0v31.389l-26.4,13.81,7.8,4.079,26.4-13.812V429.712l26.4-13.81L1020,411.823Zm-180,0v31.389l-26.4,13.81,7.8,4.079L821.4,461.1V429.712l26.4-13.81-7.8-4.079Zm420,27.619,26.4,13.81,28.2-14.755v.006l1.8-.944,26.406,13.812v-8.159L1290,443.212l-30,15.694-26.4-13.812Zm-180,0,26.406,13.81,28.2-14.755v.006l1.8-.944,26.4,13.812v-8.159L1110,443.212l-30,15.694L1053.6,445.093Zm-180,0,26.4,13.81,28.2-14.755,1.8-.939,26.4,13.812v-8.159l-26.4-13.812-30,15.694-26.4-13.812Zm420-59.01v27.623l30,15.694v27.623l7.8-4.082V433.477l-30-15.7V390.16Zm-180,0v27.623l30,15.694v27.623l7.8-4.082V433.477l-30-15.7,0-27.621Zm-180,0v27.623l30,15.694v27.623l7.8-4.082V433.477l-30-15.7V390.16Zm-180,0v27.623l30,15.694v27.623l7.8-4.082V433.477l-30-15.7V390.16Zm555-7.849v27.623l30,15.694v27.623l7.8-4.08V425.636l-14.568-7.626-15.433-8.072V382.314Zm-180,0v27.623l30,15.694v27.623l7.8-4.08V425.636l-14.568-7.626-15.434-8.072V382.314Zm-180,0v27.623l30,15.694v27.623l7.8-4.08V425.636l-14.57-7.626L956.4,409.938V382.319Zm-180,0v27.623l30,15.694v27.623l7.8-4.08V425.636l-14.57-7.626L776.4,409.938V382.319Zm465,51.165,26.4,13.81,30-15.692,26.406,13.81v-8.167L1290,427.517l-28.2,14.753-1.8.943L1233.6,429.4Zm-180,0,26.406,13.81,30-15.692,26.4,13.81v-8.167L1110,427.517l-28.2,14.753-1.8.943L1053.6,429.4Zm-180,0,26.4,13.81,30-15.692,26.4,13.81v-8.167l-26.4-13.807-28.2,14.753H901.8l-1.8.943L873.6,429.4Zm405-51.165v31.385L1252.2,431.6l7.8,4.084,22.42-11.731,3.979-2.081V390.478l26.4-13.812-7.8-4.08Zm-180,0v31.385L1072.2,431.6l7.8,4.084,3.938-2.064,22.459-11.749V390.478l26.4-13.812-7.8-4.08Zm-180,0v31.385L892.2,431.6l7.8,4.084,26.4-13.812,0-31.389,26.4-13.812-7.8-4.08Zm345-7.849v31.391l-26.4,13.81,7.8,4.082,26.4-13.812V382.63l26.4-13.812-7.8-4.08Zm-180,0v31.391l-26.4,13.81,7.8,4.082,26.4-13.812V382.63l26.4-13.812-7.8-4.08Zm-180.006,0v31.391l-26.4,13.81,7.8,4.082,26.4-13.812V382.63l26.4-13.812-7.795-4.08Zm420,27.623,26.4,13.812,30-15.692,26.4,13.81v-8.163L1380,396.126l-30,15.7-26.4-13.81Zm-180,0,26.4,13.812,30-15.692,26.4,13.81v-8.163L1200,396.126l-30,15.7-26.4-13.81Zm-180,0,26.406,13.812,30-15.692,26.4,13.81v-8.163L1020,396.126l-30,15.7L963.6,398.013Zm-180,0L810,419.982l30-15.692,26.4,13.81v-8.163L840,396.126l-30,15.7-26.4-13.81Zm600-59.008v27.623l28.2,14.749,1.8.944V418.1l7.8-4.082V386.4l-30-15.694V343.078Zm-180,0v27.623l28.2,14.749,1.8.944V418.1l7.8-4.082V386.4l-30-15.694V343.078Zm-360,0v27.623l28.2,14.749,1.8.944V418.1l7.8-4.082V386.4l-30-15.694V343.078Zm180,0v27.623l24.174,12.641,5.824,3.053V418.1l7.8-4.077V386.4l-30-15.694V343.078Zm375-7.849v27.623l30,15.694v27.623l7.8-4.082V378.547L1414.715,367.2,1408.2,363.8l-1.8-.944V335.231Zm-180,0v27.623l30,15.694v27.623l7.8-4.082V378.547L1234.717,367.2l-6.512-3.406-1.8-.944V335.231Zm-180,0v27.623l30,15.694v27.623l7.8-4.082V378.547L1054.713,367.2,1048.2,363.8l-1.8-.944V335.231Zm-180,0v27.623l30,15.694v27.623l7.8-4.082V378.547L874.715,367.2,868.2,363.8l-1.8-.944V335.231Zm465,51.165,26.4,13.812,30-15.7,26.4,13.81v-8.159L1380,380.43l-13.055,6.831L1350,396.13l-26.4-13.81Zm-180,0,26.4,13.812,30-15.7,26.4,13.81v-8.159L1200,380.43l-23.8,12.453-6.2,3.247-26.4-13.81Zm-180,0,26.406,13.812,30-15.7,26.4,13.816v-8.165L1020,380.43l-11.824,6.187-18.174,9.513L963.6,382.319Zm-180,0L810,404.291l30-15.7,26.4,13.81v-8.159l-17-8.9L840,380.43l-30,15.7-26.4-13.81Zm585-51.165V370.7l-26.4,13.812,7.8,4.08,26.4-13.81V343.4l26.4-13.812L1395,325.5Zm-180,0V370.7l-26.4,13.812,7.8,4.08,26.4-13.816V343.4l26.4-13.812L1215,325.5Zm-180,0V370.7l-26.4,13.812,7.8,4.08,26.4-13.816V343.4l26.4-13.812-7.795-4.082Zm-180,0V370.7l-26.4,13.812,7.8,4.08,26.4-13.81V343.4l26.4-13.812L855,325.5Zm525-7.849v31.389l-26.4,13.812,7.8,4.082,26.4-13.812V335.547l26.4-13.81-7.8-4.082Zm-180,0v31.389l-26.4,13.812,7.8,4.082,26.4-13.812V335.547l26.4-13.81-7.8-4.082Zm-180,0v31.389l-26.4,13.812,7.8,4.082,26.4-13.812V335.547l26.4-13.81L1020,317.654Zm-180,0v31.389l-26.4,13.812,7.8,4.082,26.4-13.812V335.547l26.4-13.81-7.795-4.082Zm420,27.625L1260,372.9l28.2-14.749,1.8-.944,26.406,13.812v-8.161L1290,349.043l-30,15.694-26.4-13.812Zm-180,0,26.406,13.807,28.2-14.749,1.8-.944,26.4,13.812v-8.161l-26.4-13.81-30,15.694L1053.6,350.925Zm-180,0L900,372.9l28.2-14.749,1.8-.944,26.4,13.812v-8.161l-26.4-13.81-30,15.694-26.4-13.812Zm420-59.016V327.7l28.2,14.747,1.8.944v27.619l7.8-4.079V339.313l-30-15.694V296Zm-180,0V327.7l28.2,14.747,1.8.944v27.619l7.8-4.079V339.313l-30-15.694,0-27.623Zm-180,0V327.7l28.2,14.753,1.8.944v27.619l7.8-4.079V339.313l-30-15.694V296Zm-180,0V327.7l28.2,14.753,1.8.944v27.619l7.8-4.079V339.313l-30-15.694V296Zm555-7.843v27.623l30,15.694V363.17l7.8-4.081V331.465l-30-15.692V288.148Zm-180,0v27.623l30,15.694V363.17l7.8-4.081V331.465l-30-15.692V288.148Zm-180,0v27.623l30,15.694V363.17l7.8-4.081V331.465l-30-15.692V288.148Zm-180,0v27.623l30,15.694V363.17l7.8-4.081V331.465l-30-15.692V288.148Zm465,51.165L1260,357.2l30-15.694,26.406,13.812v-8.159L1290,333.35l-.889.465L1261.8,348.1l-1.8.944-26.4-13.812Zm-180,0,26.406,13.806,30-15.694,26.4,13.812v-8.159L1110,333.35l-.492.26L1081.8,348.1l-1.8.944L1053.6,335.231Zm-180,0L900,357.2l30-15.694,26.4,13.812v-8.159l-26.4-13.812L903.6,347.162l-1.8.937-1.8.944-26.4-13.812Zm405-51.165V323.62l-26.4,13.812,7.8,4.077,26.4-13.81V296.309l26.4-13.812-7.8-4.077Zm-180,0V323.62l-26.4,13.812,7.8,4.077,26.4-13.81V296.309l26.4-13.812-7.8-4.077Zm-180,0V323.62l-26.4,13.812,7.8,4.077,26.4-13.81V296.309L952.8,282.5l-7.8-4.077Zm345-7.847v31.389l-26.4,13.81,7.8,4.079,26.4-13.812V288.461l26.4-13.81-7.8-4.079Zm-180,0v31.389l-26.4,13.81,7.8,4.079,26.4-13.812V288.461l26.4-13.81-7.8-4.079Zm-180.006,0v31.389l-26.4,13.81,7.8,4.079,26.4-13.812V288.461l26.4-13.81-7.795-4.079ZM1323.6,312l26.4,13.816,28.2-14.755h.006l1.8-.945,26.4,13.81v-8.157L1380,301.961l-30,15.694-26.4-13.812Zm-180,0,26.4,13.816,28.2-14.755,1.8-.945,26.4,13.81v-8.157L1200,301.961l-30,15.694-26.4-13.812Zm-180,0,26.406,13.816,28.2-14.755,1.8-.945,26.4,13.81v-8.157L1020,301.961l-30,15.694L963.6,303.842Zm-180,0L810,325.819l28.2-14.755,1.8-.945,26.4,13.81v-8.157L840,301.961l-30,15.694-26.4-13.812Zm600-59.01v27.621l15.391,8.052,12.807,6.706,1.8.937V323.93l7.8-4.08V292.231l-30-15.694V248.915Zm-180,0v27.621l15.4,8.052,12.807,6.706,1.8.937V323.93l7.8-4.08V292.231l-30-15.694V248.915Zm-180,0v27.621l9.523,4.986,18.674,9.773,1.8.937V323.93l7.8-4.08V292.231l-30-15.694V248.915Zm-180,0v27.621l9.525,4.986,18.672,9.773,1.8.937V323.93l7.8-4.08V292.231l-30-15.694V248.915Zm555-7.843v27.617l30,15.694v27.625l7.8-4.077V284.384l-30-15.694V241.068Zm-180-.006v27.623l30,15.694v27.625l7.8-4.082V284.384l-30-15.694V241.068Zm-180,0v27.623l30,15.694v27.625l7.8-4.082V284.384l-1.608-.838L1046.4,268.691V241.068Zm-180,0v27.623l30,15.694v27.625l7.8-4.077V284.384l-30-15.694V241.068Zm465,51.165,26.4,13.81,30-15.692,26.4,13.81V300.08L1380,286.267l-28.2,14.751-1.8.943-26.4-13.812Zm-180,0,26.4,13.81,30-15.692,26.4,13.81V300.08L1200,286.267l-28.2,14.751-1.8.943-26.4-13.812Zm-180,0,26.406,13.81,30-15.692,26.4,13.81V300.08l-17-8.894-9.4-4.918L991.8,301.018l-1.793.943L963.6,288.148Zm-180,0L810,310.12l30-15.692,26.4,13.81V300.08l-17-8.894-9.4-4.918-8.676,4.538L811.8,301.018l-1.8.943-26.4-13.812Zm585-51.159v31.383l-26.4,13.816,7.8,4.079,26.4-13.814V249.227l26.4-13.812-7.8-4.079Zm-180,0v31.383l-26.4,13.816,7.8,4.079,26.4-13.814V249.227l26.4-13.812-7.8-4.079Zm-180,0v31.383L982.2,290.35l7.8,4.079,26.4-13.814V249.227l26.4-13.812-7.795-4.079Zm-180,0v31.383L802.2,290.35l7.8,4.079,26.4-13.814V249.227l26.4-13.812-7.8-4.079Zm525-7.849v31.389L1327.2,282.5l7.8,4.08,26.4-13.81V241.38l26.4-13.812-7.8-4.077Zm-161.7-9.571L1173.6,237.3v31.389L1147.2,282.5l7.8,4.08,26.4-13.81V241.38l26.4-13.812-7.8-4.077Zm-180,0L993.6,237.3v31.389L967.2,282.5l7.8,4.08,26.4-13.81V241.38l26.4-13.812L1020,223.491Zm-180,0L813.6,237.3v31.389L787.2,282.5l7.8,4.08,26.4-13.81V241.38l26.4-13.812-7.8-4.077ZM1233.6,264.92l26.4,13.812,30-15.694,26.406,13.81v-8.159L1290,254.878l-30,15.693-26.4-13.812Zm-180,0,26.406,13.812,28.2-14.751,1.8-.943,26.4,13.81v-8.159L1110,254.878l-30,15.693L1053.6,256.759Zm-180,0L900,278.733l30-15.694,26.4,13.81v-8.159l-26.4-13.812-30,15.693-26.4-13.812Zm420-59.01v27.623l30,15.693V276.85l7.8-4.082V245.15l-30-15.7V201.828Zm-180,0v27.623l30,15.693V276.85l7.8-4.082V245.15l-30-15.7,0-27.623Zm-180,0v27.623l6.068,3.173,23.93,12.521V276.85l7.8-4.082V245.15l-30-15.7V201.828Zm-180,0v27.623l30,15.693V276.85l7.8-4.082V245.15l-30-15.7V201.828Zm555-7.849v27.625l30,15.694V269l7.8-4.084V237.3l-30-15.7V193.983Zm-180,0v27.625l30,15.694V269l7.8-4.084V237.3l-30-15.7V193.983Zm-180,0v27.625l30,15.694V269l7.8-4.084V237.3l-30-15.7V193.983Zm-180,0v27.625l30,15.694V269l7.8-4.084V237.3l-30-15.7V193.983Zm465,51.165,26.4,13.812,30-15.7,26.406,13.812v-8.163L1290,239.181l-25.053,13.106L1260,254.878l-26.4-13.81Zm-180,0,26.406,13.812,30-15.7,26.4,13.812v-8.163L1110,239.181l-24.1,12.6-5.9,3.093-26.406-13.81Zm-180,0L900,263.039l30-15.7,26.4,13.812v-8.163l-26.4-13.812-28.2,14.753-1.8.945-26.4-13.81Zm405-51.165v31.389l-26.4,13.81,7.8,4.082,10.061-5.262,16.338-8.549V202.144l26.4-13.812-7.8-4.082Zm-180,0v31.389l-26.4,13.81,7.8,4.082,16.449-8.611,9.947-5.2V202.144l26.4-13.812-7.8-4.082Zm-180,0v31.389l-26.4,13.81,7.8,4.082,26.4-13.81,0-31.389,26.4-13.812L945,184.25Zm363.3-17.418-18.3,9.571V221.6l-26.4,13.812,7.8,4.082,26.4-13.81V194.3l26.4-13.812-7.8-4.08Zm-180,0-18.291,9.571V221.6l-26.4,13.812,7.8,4.082,26.4-13.81V194.3l26.4-13.812-7.8-4.08Zm-180,0-18.3,9.571V221.6l-26.4,13.812L885,239.5l26.4-13.81V194.3l26.4-13.812-7.795-4.08ZM1323.6,217.838,1350,231.65l30-15.7,26.4,13.812V221.6L1380,207.8l-30,15.694-26.4-13.814Zm-180,0L1170,231.65l17.027-8.91L1198.2,216.9l1.8-.941,26.4,13.812V221.6L1200,207.8l-30,15.694-26.4-13.814Zm-180,0,26.406,13.812,17.025-8.91L1018.2,216.9l1.8-.941,26.4,13.812V221.6L1020,207.8l-30,15.694L963.6,209.677Zm-180,0L810,231.65l17.025-8.91L838.2,216.9l1.8-.941,26.4,13.812V221.6L840,207.8l-30,15.694-26.4-13.814Zm600-59.01v27.623l30,15.694v27.623l7.8-4.08V198.062l-30-15.692V154.746Zm-180,0v27.623l30,15.694v27.623l7.8-4.08V198.062l-30-15.692V154.746Zm-180,0v27.623l30,15.694v27.623l7.8-4.08V198.062l-30-15.692V154.746Zm-180,0v27.623l20.248,10.591,9.75,5.1v27.623l7.8-4.08V198.062l-30-15.692V154.746Zm555-7.849V178.6l30,15.7V221.92l7.8-4.082V190.215l-30-15.694V146.9Zm-180,0V178.6l30,15.7V221.92l7.8-4.082V190.215l-30-15.694V146.9Zm-180,0V178.6l30,15.7V221.92l7.8-4.082V190.215l-30-15.694V146.9Zm-180,0V178.6l30,15.7V221.92l7.8-4.082V190.215l-30-15.694V146.9Zm465,51.165,26.4,13.81,30-15.692,26.4,13.807v-8.159l-15.291-7.994L1380,192.1l-28.2,14.755-1.8.944-26.4-13.814Zm-180,0,26.4,13.81,30-15.692,26.4,13.807v-8.159l-15.291-7.994L1200,192.1l-28.2,14.755-1.8.944-26.4-13.814Zm-180,0,26.406,13.81,30-15.692,26.4,13.807v-8.159l-20.631-10.8L1020,192.1,991.8,206.853l-1.793.944L963.6,193.983Zm-180,0,26.4,13.81,30-15.692,26.4,13.807v-8.159L840,192.1l-18.959,9.918-9.24,4.837-1.8.944-26.4-13.814Zm585-51.165V182.37l-26.4,13.81,7.8,4.082,3.072-1.61,23.332-12.2V155.062l26.4-13.812-7.8-4.08Zm-180,0V182.37l-26.4,13.81,7.8,4.082,26.4-13.812V155.062l26.4-13.812-7.8-4.08Zm-180,0V182.37l-26.4,13.81,7.8,4.082,2.41-1.266,23.986-12.546V155.062l26.4-13.812-7.795-4.08Zm-180,0V182.37l-26.4,13.81,7.8,4.082,10.729-5.611,15.67-8.2V155.062l26.4-13.812-7.8-4.08Zm535.273-13.221-10.275,5.376v31.387l-26.4,13.81,7.8,4.082,26.4-13.812V147.215l26.4-13.812-7.8-4.082ZM1191.9,133.564l-18.295,9.571v31.387l-26.4,13.81,7.8,4.082,26.4-13.812V147.215l26.4-13.812-7.8-4.082Zm-180,0L993.6,143.135v31.387l-26.4,13.81,7.8,4.082,26.4-13.812V147.215l26.4-13.812L1020,129.32Zm-180,0L813.6,143.135v31.387l-26.4,13.81,7.8,4.082L821.4,178.6V147.215L847.8,133.4,840,129.32ZM1233.6,170.757l26.4,13.81,17.027-8.908,11.172-5.847,1.8-.937,26.406,13.8v-8.159L1290,160.709l-30,15.7L1233.6,162.6Zm-180,0,26.406,13.81,17.025-8.908,11.172-5.847,1.8-.937,26.4,13.8v-8.159L1110,160.709l-30,15.7L1053.6,162.6Zm-180,0,26.4,13.81,17.025-8.908,11.176-5.847,1.8-.937,26.4,13.8v-8.159l-26.4-13.812-30,15.7L873.6,162.6Zm420-59.016v27.627l28.2,14.751,1.8.943v27.625l7.8-4.084V150.979l-30-15.694V107.663Zm-180,0v27.627l14.1,7.377,15.9,8.316v27.625l7.8-4.084V150.979l-30-15.694,0-27.623Zm-180,0v27.623l28.2,14.755,1.8.943v27.625l7.8-4.084V150.979l-30-15.694V107.663Zm-180,0v27.623l28.2,14.755,1.8.943v27.625l7.8-4.084V150.979l-30-15.694V107.663Zm555-7.845v27.627l30,15.692v27.627l7.8-4.084V143.135l-30-15.7V99.816Zm-180,0v27.627l30,15.692v27.627l7.8-4.084V143.135l-30-15.7V99.816Zm-180,0v27.627l30,15.692v27.627l7.8-4.084V143.135l-30-15.7V99.816Zm-180,0v27.627l30,15.692v27.627l7.8-4.084V143.135l-30-15.7V99.816Zm465,51.165,26.4,13.814,30-15.7,26.406,13.812v-8.159L1290,145.016l-21.254,11.122L1260,160.709,1233.6,146.9Zm-180,0,26.406,13.814,30-15.7,26.4,13.812v-8.159L1110,145.016l-28.2,14.757-1.8.937L1053.6,146.9Zm-180,0L900,168.876l30-15.7,26.4,13.812v-8.159l-26.4-13.812-5.621,2.938L900,160.709,873.6,146.9Zm405-51.165v31.389L1252.2,149.1l7.8,4.077,12.619-6.6,13.779-7.207V107.975l26.4-13.8-7.8-4.086Zm-180,0v31.389L1072.2,149.1l7.8,4.077,26.4-13.806V107.975l26.4-13.8-7.8-4.086Zm-180,0v31.389L892.2,149.1l7.8,4.077,26.4-13.806V107.975l26.4-13.8L945,90.085Zm345-7.847v31.389l-26.4,13.81,7.8,4.077,26.4-13.8V100.129l26.4-13.812L1290,82.24Zm-180,0v31.389l-26.4,13.81,7.8,4.077,26.4-13.8V100.129l26.4-13.812L1110,82.24ZM910.748,92.311,903.6,96.05v31.389l-26.4,13.81,7.8,4.077,26.4-13.8V100.129l26.4-13.812-7.795-4.077ZM1323.6,123.669l26.4,13.82,16.152-8.452L1380,121.788l26.4,13.812v-8.161L1380,113.627l-30,15.694-26.4-13.81Zm-180,0,26.4,13.82,17.027-8.915,11.174-5.843,1.8-.943,26.4,13.812v-8.161L1200,113.627l-30,15.694-26.4-13.81Zm-180,0,26.406,13.82,17.025-8.915,11.172-5.843,1.8-.943,26.4,13.812v-8.161L1020,113.627l-30,15.694L963.6,115.51Zm-180,0,26.4,13.82,17.025-8.915L838.2,122.73l1.8-.943L866.4,135.6v-8.161L840,113.627,810,129.32l-26.4-13.81Zm600-59.012V92.282l30,15.694V135.6l7.8-4.077V103.9l-30-15.692V60.581Zm-180,0V92.282l30,15.694V135.6l7.8-4.077V103.9l-30-15.692V60.581Zm-180,0V92.282l20.248,10.595,9.75,5.1V135.6l7.8-4.077V103.9l-30-15.692V60.581Zm-180,0V92.282l20.248,10.595,9.75,5.1V135.6l7.8-4.077V103.9l-30-15.692V60.581Zm555-7.845V84.435l30,15.7v27.617l7.8-4.077V96.05l-30-15.692V52.732Zm-180,0V84.435l30,15.7v27.617l7.8-4.077V96.05l-30-15.692V52.732Zm-180,0V84.435l30,15.7v27.617l7.8-4.077V96.05l-.443-.229L1046.4,80.359V52.732Zm-180,0V84.435l30,15.7v27.617l7.8-4.077V96.05l-30-15.692V52.732Zm465,51.163,26.4,13.812,30-15.694,26.4,13.81v-8.159L1380,97.933l-30,15.694-26.4-13.81Zm-180,0,26.4,13.812,30-15.694,26.4,13.81v-8.159L1200,97.933l-30,15.694-26.4-13.81Zm-180,0,26.406,13.812,30-15.694,26.4,13.81v-8.159l-17-8.894-9.4-4.918-30,15.694L963.6,99.816Zm-180,0L810,121.788l30-15.694,26.4,13.81v-8.159l-17-8.894L840,97.933l-30,15.694-26.4-13.81Zm585-51.163V88.205l-26.4,13.81,7.8,4.079,26.4-13.812V60.895l26.4-13.812-7.8-4.077Zm-180,0V88.205l-26.4,13.81,7.8,4.079,26.4-13.812V60.895l26.4-13.812-7.8-4.077Zm-180,0V88.205l-26.4,13.81,7.8,4.079,26.4-13.812V60.895l26.4-13.812-7.795-4.077Zm-180,0V88.205l-26.4,13.81,7.8,4.079,26.4-13.812V60.895l26.4-13.812L855,43.006Zm525-7.843V80.359l-26.4,13.812,7.8,4.077,26.4-13.812V53.046l26.4-13.812-7.8-4.077Zm-180,0V80.359l-26.4,13.812,7.8,4.077,26.4-13.812V53.046l26.4-13.812-7.8-4.077Zm-180,0V80.359L967.2,94.171l7.8,4.077,26.4-13.812V53.046l26.4-13.812L1020,35.157Zm-180,0V80.359L787.2,94.171l7.8,4.077,26.4-13.812V53.046l26.4-13.812L840,35.157Zm420,27.617L1260,90.4l30-15.694L1316.4,88.518V80.359L1290,66.546,1260,82.24l-26.4-13.812Zm-180,0L1080.006,90.4l28.2-14.751,1.8-.943,26.4,13.812V80.359L1110,66.546l-30,15.694L1053.6,68.427Zm-180,0L900,90.4l30-15.694,26.4,13.812V80.359l-26.4-13.812L900,82.24,873.6,68.427Zm420-59.01V45.2l30,15.7V88.518l7.8-4.082V56.816l-30-15.7V13.494Zm-180,0V45.2l30,15.7V88.518l7.8-4.082V56.816l-30-15.7,0-27.625Zm-180,0V45.2l30,15.7V88.518l7.8-4.082V56.816l-30-15.7V13.494Zm-180,0V45.2l30,15.7V88.518l7.8-4.082V56.816l-30-15.7V13.494Zm555-7.847V37.353l30,15.694V80.671l7.8-4.084V48.97l-30-15.7V5.653Zm-180,0V37.353l30,15.694V80.671l7.8-4.084V48.97l-30-15.7V5.653Zm-180,0V37.353l30,15.694V80.671l7.8-4.084V48.97l-30-15.7V5.653Zm-180,0V37.353l30,15.694V80.671l7.8-4.084V48.97l-30-15.7V5.653Zm465,51.165,26.4,13.81,30-15.694L1316.4,72.824V64.663L1290,50.853l-30,15.694-26.4-13.814Zm-180,0,26.406,13.81,30-15.694,26.4,13.812V64.663L1110,50.853l-30,15.694L1053.6,52.732Zm-180,0L900,74.705l30-15.694,26.4,13.812V64.663l-26.4-13.81-10.381,5.426L901.805,65.6l-1.8.944L873.6,52.732Zm450-31.387,26.4,13.81,12.768-6.677L1380,27.623l26.4,13.812V33.27L1380,19.464l-30,15.694-26.4-13.812Zm-180,0,26.4,13.81,28.2-14.757,1.8-.939,26.4,13.812V33.27L1200,19.464l-30,15.694-26.4-13.812Zm-180,0,26.406,13.81,28.2-14.757,1.8-.939,26.4,13.812V33.27L1020,19.464l-30,15.694L963.6,21.345Zm-180,0L810,43.318l28.2-14.757,1.8-.939,26.4,13.812V33.27L840,19.464,810,35.157,783.6,21.345Zm540-15.7L1350,27.623l30-15.692,26.4,13.8V17.577L1380,3.764,1356.029,16.31l-4.229,2.211-1.8.943-26.4-13.81Zm-180,0L1170,27.623l30-15.692,26.4,13.8V17.577L1200,3.764l-17.8,9.315-10.4,5.442-1.8.943-26.4-13.81Zm-180,0,26.406,13.812,30-15.692,26.4,13.81V17.577L1020,3.764,995.336,16.675,991.8,18.521l-1.793.943L963.6,5.653Zm-180,0L810,27.623l30-15.692,26.4,13.8V17.577l-8.109-4.243L840,3.764,813.954,17.39,811.8,18.521l-1.8.943L783.6,5.653ZM712.805,565l-3.4-1.78L688.2,552.13l-1.8-.941V523.565l-7.8,4.082v27.625L697.2,565H682.8l-11.4-5.968V531.41l-7.8,4.082v27.623L667.2,565H652.805l3.6-1.885V531.73l26.4-13.81-7.8-4.082L648.6,527.647v31.385L637.2,565H622.8l18.6-9.728V523.883l26.4-13.814-7.8-4.08L633.6,519.8V551.19L607.2,565H592.8l-7.8-4.084L577.2,565H562.8l15-7.847-7.8-4.084-17,8.892L547.2,565H532.8l-3.4-1.78L508.2,552.13l-1.8-.941V523.565l-7.8,4.082v27.625L517.2,565H502.8l-11.4-5.968V531.41l-7.8,4.082v27.623L487.2,565H472.8l3.6-1.885V531.73l26.4-13.81-7.8-4.082-26.4,13.81v31.385L457.2,565H442.8l18.6-9.728V523.883l26.4-13.814-7.8-4.08L453.6,519.8V551.19L427.2,565H412.8l-7.8-4.084L397.2,565H382.8l15-7.847-7.8-4.084-17,8.892L367.2,565H352.8l-3.4-1.78L328.2,552.13l-1.807-.941V523.565l-7.8,4.082v27.625L337.2,565H322.8l-11.4-5.968V531.41l-7.8,4.082v27.623L307.2,565H292.8l3.6-1.885V531.73l26.4-13.81-7.8-4.082-26.4,13.81v31.385L277.2,565H262.8l18.6-9.728V523.883l26.4-13.814-7.8-4.08L273.6,519.8V551.19L247.2,565H232.8l-7.8-4.084L217.2,565H202.8l15-7.847-7.8-4.084-17,8.892L187.2,565H172.8l-3.395-1.78L148.2,552.13l-1.8-.941V523.565l-7.8,4.082v27.625L157.2,565H142.8l-11.4-5.968V531.41l-7.8,4.082v27.623l2.529,1.326,1.07.559H112.8l3.605-1.885V531.73l26.4-13.81-7.8-4.082-26.4,13.81v31.385L97.2,565H82.8l18.6-9.728V523.883l26.4-13.814-7.8-4.08L93.6,519.8V551.19L67.205,565H52.8L45,560.916,37.2,565H22.8l15-7.847L30,553.069,13,561.961,7.2,565H0v-3.77l30-15.694,26.4,13.812V551.19L30,537.375,0,553.069v-7.533l30-15.7,26.4,13.81v-8.159L30,521.68l-26.4,13.812-1.8.943-1.8.941v-7.534l3.2-1.672L26.4,516.034V484.643L52.8,470.831,45,466.753,18.6,480.567v31.385L0,521.68v-7.533l11.4-5.964V476.793l26.4-13.81L30,458.906,3.6,472.716v31.389L0,505.988V467.065l26.4-13.81,1.8-.944L30,451.371l26.4,13.812v-8.159L30,443.212,0,458.906v-7.535L30,435.68l26.4,13.81v-8.167L30,427.517,1.8,442.27l-1.8.943V435.68l26.4-13.812V390.478l26.4-13.812-7.8-4.08L18.6,386.4v31.385L0,427.517v-7.534l11.4-5.964V382.63l26.4-13.812-7.8-4.08L3.6,378.547v31.391L0,411.823V372.9l28.2-14.749L30,357.2l26.4,13.812v-8.161L30,349.043,0,364.737V357.2l30-15.694,26.4,13.812v-8.159L30,333.35,3.605,347.162l-1.8.937-1.8.944v-7.535L26.4,327.7V296.309L52.8,282.5,45,278.421l-26.4,13.81V323.62L0,333.35v-7.536l11.4-5.964V288.461l26.4-13.81L30,270.572,3.6,284.384v31.389L0,317.654V278.733l30-15.694,26.4,13.81v-8.159L30,254.878,0,270.572v-7.533l30-15.7,26.4,13.812v-8.163L30,239.185,1.8,253.934l-1.8.945v-7.535l2.213-1.16L26.4,233.533V202.144l26.4-13.812L45,184.25,18.6,198.062v31.389L0,239.181V231.65l11.4-5.964V194.3l26.4-13.812L30,176.4l-8.109,4.239L3.6,190.215V221.6L0,223.491V184.568l17.027-8.908L28.2,169.813l1.8-.937,26.4,13.8v-8.159L30,160.709,0,176.4v-7.529l30-15.7,26.4,13.812v-8.159L30,145.016l-5.613,2.938L0,160.709v-7.535l26.4-13.806V107.975L52.8,94.171,45,90.085,18.6,103.9v31.389L0,145.016v-7.535l11.4-5.958V100.129L37.8,86.316,30,82.24,3.6,96.05v31.389L0,129.32V90.4L30,74.705,56.4,88.518V80.359L30,66.546,0,82.24V74.705L30,59.012,56.4,72.824V64.663L30,50.853,19.625,56.279,1.8,65.6,0,66.546V59.012l2.213-1.158L26.4,45.2V13.81L52.8,0H67.2L75,4.082,82.8,0H97.2l-15,7.847L90,11.931,112.8,0h14.4l24.6,12.868,1.8.943V41.435l7.8-4.082V9.73L142.8,0h14.4l11.4,5.966V33.582l7.8-4.075V1.881L172.8,0h14.4l-3.6,1.881V33.27L157.2,47.083l7.8,4.082,26.4-13.812V5.966L202.8,0h14.4L198.6,9.73V41.119l-26.4,13.81,7.8,4.082,2.213-1.158L206.4,45.2V13.81L232.8,0h14.4L255,4.082,262.8,0h14.4l-15,7.847,7.8,4.084L292.8,0h14.4l9.828,5.145L331.8,12.868l1.8.943V41.435l7.8-4.082V9.73L322.8,0h14.4l11.4,5.966V33.582l7.8-4.075V1.881L352.8,0h14.4l-3.6,1.881V33.27L337.2,47.083l7.8,4.082,26.4-13.812V5.966L382.8,0h14.4L378.6,9.73V41.119l-26.4,13.81,7.8,4.082L376.459,50.4,386.4,45.2V13.81L412.8,0h14.4L435,4.082,442.8,0h14.4l-15,7.847,7.8,4.084L461.89,5.71,472.8,0h14.4l4.475,2.343L511.8,12.868l1.8.943V41.435l7.8-4.082V9.73L502.8,0h14.4l11.4,5.966V33.582l7.8-4.075V1.881L532.8,0h14.4l-3.6,1.881V33.27L517.2,47.083l7.8,4.082,26.4-13.812V5.966L562.805,0H577.2L558.6,9.73V41.119l-26.4,13.81,7.8,4.082L566.4,45.2V13.81L592.8,0h14.4L615,4.082,622.8,0h14.4l-15,7.847,7.8,4.084L652.805,0H667.2l4.482,2.343L691.8,12.868l1.8.943V41.435l7.8-4.082V9.73L682.8,0h14.4l11.4,5.966V33.582l7.8-4.075V1.881L712.8,0H720V35.157L697.2,47.083l7.8,4.082,15-7.847v7.535l-7.8,4.077,7.8,4.082v7.535L693.6,52.732v8.163L720,74.705V82.24L693.6,68.427v8.159L720,90.4V129.32L697.2,141.25l7.8,4.077,15-7.845v7.535l-7.8,4.082,7.8,4.077v7.535L693.6,146.9v8.165L720,168.876V176.4L693.6,162.6v8.161L720,184.568v38.924l-22.8,11.923L705,239.5l15-7.847v7.531l-7.8,4.08,7.8,4.082v7.535L693.6,241.068v8.159L720,263.039v7.533L693.6,256.759v8.161L720,278.733v38.922l-22.8,11.929,7.8,4.079,15-7.843v7.531l-7.8,4.082,7.8,4.077v7.535L693.6,335.231V343.4L720,357.2v7.535L693.6,350.925v8.165L720,372.9v38.927l-22.8,11.925,7.8,4.082,15-7.849v7.534l-7.8,4.079,7.8,4.084v7.533L693.6,429.4v8.161L720,451.371v7.535L693.6,445.093v8.161L720,467.065v38.924l-22.8,11.931L705,522l15-7.849v7.533l-7.8,4.084,7.8,4.077v7.534L693.6,523.565v8.165L720,545.536v7.533L693.6,539.259v8.163L720,561.23V565ZM513.6,547.421,540,561.23l30-15.694,26.4,13.812V551.19L570,537.375l-30,15.694-26.4-13.81Zm-180,0L360,561.23l30-15.694L416.4,559.349V551.19L390,537.375l-30,15.694-26.4-13.81Zm-180,0L180,561.23l30-15.694,26.4,13.812V551.19L210,537.375l-30,15.694-26.4-13.81Zm420-59.01v27.623l28.2,14.751,1.8.944v27.619l7.8-4.077V527.647l-30-15.7V484.327Zm-180,0v27.623l28.2,14.751,1.8.944v27.619l7.8-4.077V527.647l-30-15.7V484.327Zm-180,0v27.623l28.2,14.751,1.8.944v27.619l7.8-4.077V527.647l-30-15.7V484.327Zm-180,0v27.623l28.2,14.751,1.8.944v27.619l7.8-4.077V527.647l-30-15.7V484.327Zm375-7.845v27.617l30,15.7V551.5l7.8-4.082V519.8l-21.684-11.345-6.514-3.409-1.8-.939V476.482Zm-180,0v27.617l30,15.7V551.5l7.8-4.082V519.8l-21.686-11.345-6.514-3.409-1.8-.939V476.482Zm-180,0v27.617l30,15.7V551.5l7.8-4.082V519.8L64.715,508.453,58.2,505.044l-1.8-.939V476.482Zm540,0v27.617l30,15.7V551.5l7.8-4.079V519.8l-21.686-11.345-6.512-3.409-1.8-.939V476.482Zm-75,51.163L540,545.536l30-15.7,26.4,13.81v-8.159l-14.854-7.773L570,521.68l-30,15.7-26.4-13.81Zm-180,0L360,545.536l30-15.7,26.406,13.81v-8.159l-5.061-2.639L390,521.68l-30,15.7-26.4-13.81Zm-180,0L180,545.536l30-15.7,26.4,13.81v-8.159L210,521.68l-26.4,13.812-1.8.943-1.8.941-26.4-13.81Zm405-51.163v31.385l-26.4,13.812,7.8,4.077,10.988-5.745,15.414-8.062V484.643l26.4-13.812-7.8-4.079Zm-179.995,0v31.385l-26.4,13.812,7.8,4.077,26.4-13.807V484.643l26.4-13.812-7.8-4.079Zm-180,0v31.385l-26.4,13.812,7.8,4.077,3.191-1.672L206.4,516.034V484.643l26.4-13.812-7.8-4.079Zm345-7.851v31.389l-26.4,13.814L525,522l26.4-13.812V476.793l26.4-13.81-7.8-4.077Zm-180,0v31.389l-26.4,13.814L345,522l26.4-13.812V476.793l26.4-13.81-7.8-4.077Zm-180,0v31.389l-26.4,13.814L165,522l26.4-13.812V476.793l26.4-13.81-7.8-4.077Zm420,27.619L630,514.147,658.2,499.4l1.8-.943,26.4,13.812v-8.161L660,490.295l-30,15.694-26.4-13.812Zm-180,0L450,514.147,478.2,499.4l1.8-.943,26.4,13.812v-8.161L480,490.295l-30,15.694-26.4-13.812Zm-180,0L270,514.147,298.2,499.4l1.8-.943,26.4,13.812v-8.161L300,490.295l-30,15.694-26.4-13.812Zm-180,0L90,514.147,118.2,499.4l1.8-.943,26.4,13.812v-8.161L120,490.295,90,505.988,63.6,492.176Zm600-59.012v27.623l13.889,7.271L691.8,483.7l1.8.941v27.623l7.8-4.082V480.567l-30-15.7V437.249Zm-180,0v27.623l13.887,7.271L511.8,483.7l1.8.941v27.623l7.8-4.082V480.567l-30-15.7V437.249Zm-180,0v27.623l7,3.664L331.8,483.7l1.8.941v27.623l7.8-4.082V480.567l-30-15.7V437.249Zm-180,0v27.623l7,3.664L151.8,483.7l1.8.941v27.623l7.8-4.082V480.567l-30-15.7V437.249Zm555-7.847V461.1l30,15.692v27.625l7.8-4.077V472.716l-30-15.692V429.4Zm-180,0V461.1l30,15.692v27.625l7.8-4.082V472.716l-30-15.692V429.4Zm-180,0V461.1l30,15.692v27.625l7.8-4.082V472.716l-30-15.692V429.4Zm-180,0V461.1l30,15.692v27.625l7.8-4.077V472.716l-30-15.692V429.4Zm465,51.167,26.4,13.81,30-15.7,26.4,13.816v-8.163L660,474.6l-30,15.7-26.4-13.812Zm-180,0,26.4,13.81,30-15.7,26.4,13.816v-8.163L480,474.6l-30,15.7-26.4-13.812Zm-180,0,26.4,13.81,30-15.7,26.4,13.816v-8.163l-17-8.894L300,474.6l-30,15.7-26.4-13.812Zm-180,0L90,498.454l30-15.7,26.4,13.816v-8.163l-17-8.894L120,474.6l-30,15.7L63.6,476.482Zm585-51.167v31.393l-26.4,13.806,7.8,4.082,26.4-13.812V437.561l26.4-13.812-7.8-4.077Zm-180,0v31.393l-26.4,13.806,7.8,4.082,26.4-13.812V437.561l26.4-13.812-7.8-4.077Zm-180,0v31.393l-26.4,13.806,7.8,4.082,26.4-13.812V437.561l26.4-13.812-7.8-4.077Zm-180,0v31.393L82.2,478.676l7.8,4.082,26.4-13.812V437.561l26.4-13.812-7.8-4.077Zm525-7.841v31.389l-26.4,13.81,7.8,4.079L641.4,461.1V429.712l26.4-13.81-7.8-4.079Zm-180,0v31.389l-26.4,13.81,7.8,4.079L461.4,461.1V429.712l26.4-13.81-7.8-4.079Zm-180,0v31.389l-26.4,13.81,7.8,4.079L281.4,461.1V429.712l26.4-13.81-7.8-4.079Zm-180,0v31.389l-26.4,13.81,7.8,4.079L101.4,461.1V429.712l26.4-13.81-7.8-4.079Zm420,27.619,26.4,13.81,28.2-14.755v.006l1.8-.944,26.4,13.812v-8.159L570,443.212l-30,15.694-26.4-13.812Zm-180,0,26.4,13.81,28.2-14.755v.006l1.8-.944L416.4,465.184v-8.159L390,443.212l-30,15.694-26.4-13.812Zm-180,0,26.4,13.81L208.2,452.31l1.8-.939,26.4,13.812v-8.159L210,443.212l-30,15.694-26.4-13.812Zm420-59.01v27.623l30,15.694v27.623l7.8-4.082V433.477l-30-15.7V390.16Zm-180,0v27.623l30,15.694v27.623l7.8-4.082V433.477l-30-15.7V390.16Zm-180,0v27.623l30,15.694v27.623l7.8-4.082V433.477l-30-15.7V390.16Zm-180,0v27.623l30,15.694v27.623l7.8-4.082V433.477l-30-15.7V390.16Zm555-7.849v27.623l30,15.694v27.623l7.8-4.08V425.636l-14.57-7.626L596.4,409.938V382.314Zm-180,0v27.623l30,15.694v27.623l7.8-4.08V425.636l-14.57-7.626L416.4,409.938V382.314Zm-180,0v27.623l30,15.694v27.623l7.8-4.08V425.636l-14.566-7.626L236.4,409.938V382.319Zm-180,0v27.623l30,15.694v27.623l7.8-4.08V425.636L71.828,418.01,56.4,409.938V382.319Zm465,51.165,26.4,13.81,30-15.692,26.4,13.81v-8.167L570,427.517,541.8,442.27l-1.8.943L513.6,429.4Zm-180,0,26.4,13.81,30-15.692L416.4,449.49v-8.167L390,427.517,361.8,442.27l-1.8.943L333.6,429.4Zm-180,0,26.4,13.81,30-15.692,26.4,13.81v-8.167L210,427.517,181.8,442.27l-1.8.943L153.6,429.4Zm405-51.165v31.385L532.2,431.6l7.8,4.084,22.42-11.731,3.982-2.081V390.478l26.4-13.812-7.8-4.08Zm-179.995,0v31.385L352.2,431.6l7.8,4.084,3.939-2.064L386.4,421.867V390.478l26.4-13.812-7.8-4.08Zm-180,0v31.385L172.2,431.6l7.8,4.084,26.4-13.812V390.478l26.4-13.812-7.8-4.08ZM543.6,378.547v31.391l-26.4,13.81,7.8,4.082,26.4-13.812V382.63l26.4-13.812-7.8-4.08Zm-180,0v31.391l-26.4,13.81,7.8,4.082,26.4-13.812V382.63l26.4-13.812-7.8-4.08Zm-180,0v31.391l-26.4,13.81,7.8,4.082,26.4-13.812V382.63l26.4-13.812-7.8-4.08Zm420,27.623L630,419.982l30-15.692,26.4,13.81v-8.163L660,396.126l-30,15.7-26.4-13.81Zm-180,0L450,419.982l30-15.692,26.4,13.81v-8.163L480,396.126l-30,15.7-26.4-13.81Zm-180,0L270,419.982l30-15.692,26.4,13.81v-8.163L300,396.126l-30,15.7-26.4-13.81Zm-180,0L90,419.982l30-15.692,26.4,13.81v-8.163L120,396.126l-30,15.7-26.4-13.81Zm600-59.008v27.623l28.2,14.749,1.8.944V418.1l7.8-4.082V386.4l-30-15.694V343.078Zm-180,0v27.623l28.2,14.749,1.8.944V418.1l7.8-4.082V386.4l-30-15.694V343.078Zm-360,0v27.623l28.2,14.749,1.8.944V418.1l7.8-4.082V386.4l-30-15.694V343.078Zm180,0v27.623l24.174,12.641,5.83,3.053V418.1l7.8-4.077V386.4l-30-15.694V343.078Zm375-7.849v27.623l30,15.694v27.623l7.8-4.082V378.547L694.711,367.2,688.2,363.8l-1.8-.944V335.231Zm-180,0v27.623l30,15.694v27.623l7.8-4.082V378.547L514.717,367.2,508.2,363.8l-1.8-.944V335.231Zm-180,0v27.623l30,15.694v27.623l7.8-4.082V378.547L334.713,367.2,328.2,363.8l-1.807-.944V335.231Zm-180,0v27.623l30,15.694v27.623l7.8-4.082V378.547L154.715,367.2,148.2,363.8l-1.8-.944V335.231Zm465,51.165L630,404.291l30-15.7,26.4,13.81v-8.159L660,380.43l-13.049,6.831L630,396.13l-26.4-13.81Zm-180,0L450,404.291l30-15.7,26.4,13.81v-8.159L480,380.43,456.2,392.883,450,396.13l-26.4-13.81Zm-180,0L270,404.291l30-15.7,26.4,13.816v-8.165L300,380.43l-11.816,6.187L270,396.13l-26.4-13.81Zm-180,0L90,404.291l30-15.7,26.4,13.81v-8.159l-17-8.9L120,380.43l-30,15.7-26.4-13.81Zm585-51.165V370.7l-26.4,13.812,7.8,4.08,26.4-13.81V343.4l26.4-13.812L675,325.5Zm-180,0V370.7l-26.4,13.812,7.8,4.08,26.4-13.816V343.4l26.4-13.812L495,325.5Zm-180,0V370.7l-26.4,13.812,7.8,4.08,26.4-13.816V343.4l26.4-13.812L315,325.5Zm-180,0V370.7L82.2,384.515,90,388.6l26.4-13.81V343.4l26.4-13.812L135,325.5Zm525-7.849v31.389l-26.4,13.812,7.8,4.082,26.4-13.812V335.547l26.406-13.81-7.8-4.082Zm-180,0v31.389l-26.4,13.812,7.8,4.082,26.4-13.812V335.547l26.4-13.81-7.8-4.082Zm-180,0v31.389l-26.4,13.812,7.8,4.082,26.4-13.812V335.547l26.4-13.81-7.8-4.082Zm-180,0v31.389l-26.4,13.812,7.8,4.082,26.4-13.812V335.547l26.4-13.81-7.8-4.082Zm420,27.625L540,372.9l28.2-14.749,1.8-.944,26.4,13.812v-8.161L570,349.043l-30,15.694-26.4-13.812Zm-180,0L360,372.9l28.2-14.749,1.8-.944L416.4,371.015v-8.161L390,349.043l-30,15.694-26.4-13.812Zm-180,0L180,372.9l28.2-14.749,1.8-.944,26.4,13.812v-8.161L210,349.043l-30,15.694-26.4-13.812Zm420-59.016V327.7l28.2,14.747,1.8.944v27.619l7.8-4.079V339.313l-30-15.694V296Zm-180,0V327.7l28.2,14.747,1.8.944v27.619l7.8-4.079V339.313l-30-15.694V296Zm-180,0V327.7l28.2,14.753,1.8.944v27.619l7.8-4.079V339.313l-30-15.694V296Zm-180,0V327.7l28.2,14.753,1.8.944v27.619l7.8-4.079V339.313l-30-15.694V296Zm555-7.843v27.623l30,15.694V363.17l7.8-4.081V331.465l-30-15.692V288.148Zm-180,0v27.623l30,15.694V363.17l7.8-4.081V331.465l-30-15.692V288.148Zm-180,0v27.623l30,15.694V363.17l7.8-4.081V331.465l-30-15.692V288.148Zm-180,0v27.623l30,15.694V363.17l7.8-4.081V331.465l-30-15.692V288.148Zm465,51.165L540,357.2l30-15.694,26.4,13.812v-8.159L570,333.35l-.889.465L541.8,348.1l-1.8.944-26.4-13.812Zm-180,0L360,357.2l30-15.694L416.4,355.321v-8.159L390,333.35l-.49.26L361.8,348.1l-1.8.944-26.4-13.812Zm-180,0L180,357.2l30-15.694,26.4,13.812v-8.159L210,333.35l-26.4,13.812-1.8.937-1.8.944-26.4-13.812Zm405-51.165V323.62l-26.4,13.812,7.8,4.077,26.4-13.81V296.309L592.8,282.5l-7.8-4.077Zm-179.995,0V323.62l-26.4,13.812,7.8,4.077,26.4-13.81V296.309L412.8,282.5l-7.8-4.077Zm-180,0V323.62l-26.4,13.812,7.8,4.077,26.4-13.81V296.309L232.8,282.5l-7.8-4.077Zm345-7.847v31.389l-26.4,13.81,7.8,4.079,26.4-13.812V288.461l26.4-13.81-7.8-4.079Zm-180,0v31.389l-26.4,13.81,7.8,4.079,26.4-13.812V288.461l26.4-13.81-7.8-4.079Zm-180,0v31.389l-26.4,13.81,7.8,4.079,26.4-13.812V288.461l26.4-13.81-7.8-4.079ZM603.6,312,630,325.819l28.2-14.755,1.8-.945,26.4,13.81v-8.157L660,301.961l-30,15.694-26.4-13.812Zm-180,0L450,325.819,478.2,311.064l1.8-.945,26.4,13.81v-8.157L480,301.961l-30,15.694-26.4-13.812Zm-180,0L270,325.819l28.2-14.755,1.8-.945,26.4,13.81v-8.157L300,301.961l-30,15.694-26.4-13.812Zm-180,0L90,325.819l28.2-14.755,1.8-.945,26.4,13.81v-8.157L120,301.961,90,317.654,63.6,303.842Zm600-59.01v27.621l15.393,8.052,12.8,6.706,1.8.937V323.93l7.8-4.08V292.231l-30-15.694V248.915Zm-180,0v27.621l15.391,8.052,12.808,6.706,1.8.937V323.93l7.8-4.08V292.231l-30-15.694V248.915Zm-180,0v27.621l9.523,4.986,18.68,9.773,1.8.937V323.93l7.8-4.08V292.231l-30-15.694V248.915Zm-180,0v27.621l9.523,4.986,18.676,9.773,1.8.937V323.93l7.8-4.08V292.231l-30-15.694V248.915Zm555-7.843v27.617l30,15.694v27.625l7.8-4.077V284.384l-30-15.694V241.068Zm-180-.006v27.623l30,15.694v27.625L536.4,312V284.384l-30-15.694V241.068Zm-180,0v27.623l30,15.694v27.625L356.4,312V284.384l-1.605-.838-28.4-14.856V241.068Zm-180,0v27.623l30,15.694v27.625l7.8-4.077V284.384l-30-15.694V241.068Zm465,51.165L630,310.12l30-15.692,26.4,13.81V300.08L660,286.267l-28.2,14.751-1.8.943-26.4-13.812Zm-180,0L450,310.12l30-15.692,26.4,13.81V300.08L480,286.267l-28.2,14.751-1.8.943-26.4-13.812Zm-180,0L270,310.12l30-15.692,26.4,13.81V300.08l-17-8.894-9.4-4.918-28.2,14.751-1.8.943-26.4-13.812Zm-180,0L90,310.12l30-15.692,26.4,13.81V300.08l-17-8.894-9.4-4.918-8.682,4.538L91.8,301.018l-1.8.943L63.6,288.148Zm585-51.159v31.383L622.2,290.35l7.8,4.079,26.4-13.814V249.227l26.4-13.812-7.8-4.079Zm-180,0v31.383L442.2,290.35l7.8,4.079,26.4-13.814V249.227l26.4-13.812-7.8-4.079Zm-180,0v31.383L262.2,290.35l7.8,4.079,26.4-13.814V249.227l26.4-13.812-7.8-4.079Zm-180,0v31.383L82.2,290.35l7.8,4.079,26.4-13.814V249.227l26.4-13.812-7.8-4.079Zm525-7.849v31.389L607.2,282.5l7.8,4.08,26.4-13.81V241.38l26.4-13.812-7.8-4.077Zm-161.708-9.571L453.6,237.3v31.389L427.2,282.5l7.8,4.08,26.4-13.81V241.38l26.4-13.812-7.8-4.077Zm-180,0L273.6,237.3v31.389L247.2,282.5l7.8,4.08,26.4-13.81V241.38l26.4-13.812-7.8-4.077Zm-180,0L93.6,237.3v31.389L67.2,282.5l7.8,4.08,26.4-13.81V241.38l26.4-13.812-7.8-4.077ZM513.6,264.92,540,278.733l30-15.694,26.4,13.81v-8.159L570,254.878l-30,15.693-26.4-13.812Zm-180,0L360,278.733l28.2-14.751,1.8-.943L416.4,276.85v-8.159L390,254.878l-30,15.693-26.4-13.812Zm-180,0L180,278.733l30-15.694,26.4,13.81v-8.159L210,254.878l-30,15.693-26.4-13.812Zm420-59.01v27.623l30,15.693V276.85l7.8-4.082V245.15l-30-15.7V201.828Zm-180,0v27.623l30,15.693V276.85l7.8-4.082V245.15l-30-15.7V201.828Zm-180,0v27.623l6.066,3.173L243.6,249.227V276.85l7.8-4.082V245.15l-30-15.7V201.828Zm-180,0v27.623l30,15.693V276.85l7.8-4.082V245.15l-30-15.7V201.828Zm555-7.849v27.625l30,15.694V269l7.8-4.084V237.3l-30-15.7V193.983Zm-180,0v27.625l30,15.694V269l7.8-4.084V237.3l-30-15.7V193.983Zm-180,0v27.625l30,15.694V269l7.8-4.084V237.3l-30-15.7V193.983Zm-180,0v27.625l30,15.694V269l7.8-4.084V237.3l-30-15.7V193.983Zm465,51.165L540,263.039l30-15.7,26.4,13.812v-8.163L570,239.181l-25.059,13.106L540,254.878l-26.4-13.81Zm-180,0L360,263.039l30-15.7L416.4,261.156v-8.163L390,239.181l-24.1,12.6-5.9,3.093-26.4-13.81Zm-180,0L180,263.039l30-15.7,26.4,13.812v-8.163L210,239.181l-28.2,14.753-1.8.945-26.4-13.81Zm405-51.165v31.389l-26.4,13.81,7.8,4.082,10.061-5.262,16.342-8.549V202.144l26.4-13.812L585,184.25Zm-179.995,0v31.389l-26.4,13.81,7.8,4.082,16.457-8.611,9.941-5.2V202.144l26.4-13.812L405,184.25Zm-180,0v31.389l-26.4,13.81,7.8,4.082,26.4-13.81V202.144l26.4-13.812L225,184.25Zm363.29-17.418L543.6,190.215V221.6l-26.4,13.812L525,239.5l26.4-13.81V194.3l26.4-13.812L570,176.4Zm-180,0L363.6,190.215V221.6l-26.4,13.812L345,239.5l26.4-13.81V194.3l26.4-13.812L390,176.4Zm-180,0L183.6,190.215V221.6l-26.4,13.812L165,239.5l26.4-13.81V194.3l26.4-13.812L210,176.4ZM603.6,217.838,630,231.65l30-15.7,26.4,13.812V221.6L660,207.8l-30,15.694-26.4-13.814Zm-180,0L450,231.65l17.027-8.91L478.2,216.9l1.8-.941,26.4,13.812V221.6L480,207.8l-30,15.694-26.4-13.814Zm-180,0L270,231.65l17.025-8.91L298.2,216.9l1.8-.941,26.4,13.812V221.6L300,207.8l-30,15.694-26.4-13.814Zm-180,0L90,231.65l17.027-8.91L118.2,216.9l1.8-.941,26.4,13.812V221.6L120,207.8,90,223.491,63.6,209.677Zm600-59.01v27.623l30,15.694v27.623l7.8-4.08V198.062l-30-15.692V154.746Zm-180,0v27.623l30,15.694v27.623l7.8-4.08V198.062l-30-15.692V154.746Zm-180,0v27.623l30,15.694v27.623l7.8-4.08V198.062l-30-15.692V154.746Zm-180,0v27.623l20.248,10.591,9.75,5.1v27.623l7.8-4.08V198.062l-30-15.692V154.746Zm555-7.849V178.6l30,15.7V221.92l7.8-4.082V190.215l-30-15.694V146.9Zm-180,0V178.6l30,15.7V221.92l7.8-4.082V190.215l-30-15.694V146.9Zm-180,0V178.6l30,15.7V221.92l7.8-4.082V190.215l-30-15.694V146.9Zm-180,0V178.6l30,15.7V221.92l7.8-4.082V190.215l-30-15.694V146.9Zm465,51.165,26.4,13.81,30-15.692,26.4,13.807v-8.159l-15.289-7.994L660,192.1l-28.2,14.755-1.8.944-26.4-13.814Zm-180,0,26.4,13.81,30-15.692,26.4,13.807v-8.159l-15.29-7.994L480,192.1l-28.2,14.755-1.8.944-26.4-13.814Zm-180,0,26.4,13.81,30-15.692,26.4,13.807v-8.159l-20.637-10.8L300,192.1l-28.2,14.755-1.8.944-26.4-13.814Zm-180,0L90,215.955l30-15.692,26.4,13.807v-8.159L120,192.1l-18.963,9.918L91.8,206.853,90,207.8,63.6,193.983Zm585-51.165V182.37l-26.4,13.81,7.8,4.082,3.072-1.61,23.324-12.2V155.062l26.4-13.812-7.8-4.08Zm-180,0V182.37l-26.4,13.81,7.8,4.082,26.4-13.812V155.062l26.4-13.812-7.8-4.08Zm-180,0V182.37l-26.4,13.81,7.8,4.082,2.41-1.266L296.4,186.451V155.062l26.4-13.812-7.8-4.08Zm-180,0V182.37l-26.4,13.81,7.8,4.082,10.729-5.611,15.676-8.2V155.062l26.4-13.812-7.8-4.08Zm535.28-13.221L633.6,143.135v31.387l-26.4,13.81,7.8,4.082L641.4,178.6V147.215L667.8,133.4,660,129.32Zm-171.985-4.195L453.6,143.135v31.387l-26.4,13.81,7.8,4.082L461.4,178.6V147.215L487.8,133.4,480,129.32Zm-180,0L273.6,143.135v31.387l-26.4,13.81,7.8,4.082L281.4,178.6V147.215L307.8,133.4,300,129.32Zm-180,0L93.6,143.135v31.387l-26.4,13.81,7.8,4.082L101.4,178.6V147.215L127.8,133.4,120,129.32ZM513.6,170.757l26.4,13.81,17.025-8.908,11.178-5.847,1.8-.937,26.4,13.8v-8.159L570,160.709l-30,15.7L513.6,162.6Zm-180,0,26.4,13.81,17.027-8.908,11.172-5.847,1.8-.937,26.406,13.8v-8.159L390,160.709l-30,15.7L333.6,162.6Zm-180,0,26.4,13.81,17.021-8.908,11.178-5.847,1.8-.937,26.4,13.8v-8.159L210,160.709l-30,15.7L153.6,162.6Zm420-59.016v27.627l28.2,14.751,1.8.943v27.625l7.8-4.084V150.979l-30-15.694V107.663Zm-180,0v27.627l14.1,7.377,15.9,8.316v27.625l7.8-4.084V150.979l-30-15.694V107.663Zm-180,0v27.623l28.2,14.755,1.8.943v27.625l7.8-4.084V150.979l-30-15.694V107.663Zm-180,0v27.623l28.2,14.755,1.8.943v27.625l7.8-4.084V150.979l-30-15.694V107.663Zm555-7.845v27.627l30,15.692v27.627l7.8-4.084V143.135l-30-15.7V99.816Zm-180,0v27.627l30,15.692v27.627l7.8-4.084V143.135l-30-15.7V99.816Zm-180,0v27.627l30,15.692v27.627l7.8-4.084V143.135l-30-15.7V99.816Zm-180,0v27.627l30,15.692v27.627l7.8-4.084V143.135l-30-15.7V99.816Zm465,51.165L540,168.876l30-15.7,26.4,13.812v-8.159L570,145.016l-21.256,11.122L540,160.709,513.6,146.9Zm-180,0L360,168.876l30-15.7L416.4,166.987v-8.159L390,145.016l-28.2,14.757-1.8.937L333.6,146.9Zm-180,0L180,168.876l30-15.7,26.4,13.812v-8.159L210,145.016l-5.619,2.938L180,160.709,153.6,146.9Zm405-51.165v31.389L532.2,149.1l7.8,4.077,12.619-6.6,13.783-7.207V107.975l26.4-13.8L585,90.085Zm-179.995,0v31.389L352.2,149.1l7.8,4.077,26.4-13.806V107.975l26.4-13.8L405,90.085Zm-180,0v31.389L172.2,149.1l7.8,4.077,26.4-13.806V107.975l26.4-13.8L225,90.085Zm345-7.847v31.389l-26.4,13.81,7.8,4.077,26.4-13.8V100.129l26.4-13.812L570,82.24Zm-180,0v31.389l-26.4,13.81,7.8,4.077,26.4-13.8V100.129l26.4-13.812L390,82.24ZM190.744,92.311,183.6,96.05v31.389l-26.4,13.81,7.8,4.077,26.4-13.8V100.129l26.4-13.812L210,82.24ZM603.6,123.669l26.4,13.82,16.145-8.452L660,121.788,686.4,135.6v-8.161L660,113.627,630,129.32l-26.4-13.81Zm-180,0,26.4,13.82,17.027-8.915L478.2,122.73l1.8-.943L506.4,135.6v-8.161L480,113.627,450,129.32l-26.4-13.81Zm-180,0,26.4,13.82,17.025-8.915L298.2,122.73l1.8-.943L326.4,135.6v-8.161L300,113.627,270,129.32l-26.4-13.81Zm-180,0L90,137.489l17.027-8.915L118.2,122.73l1.8-.943L146.4,135.6v-8.161L120,113.627,90,129.32,63.6,115.51Zm600-59.012V92.282l30,15.694V135.6l7.8-4.077V103.9l-30-15.692V60.581Zm-180,0V92.282l30,15.694V135.6l7.8-4.077V103.9l-30-15.692V60.581Zm-180,0V92.282l20.254,10.595,9.75,5.1V135.6l7.8-4.077V103.9l-30-15.692V60.581Zm-180,0V92.282l20.248,10.595,9.75,5.1V135.6l7.8-4.077V103.9l-30-15.692V60.581Zm555-7.845V84.435l30,15.7v27.617l7.8-4.077V96.05l-30-15.692V52.732Zm-180,0V84.435l30,15.7v27.617l7.8-4.077V96.05l-30-15.692V52.732Zm-180,0V84.435l30,15.7v27.617l7.8-4.077V96.05l-.441-.229L326.4,80.359V52.732Zm-180,0V84.435l30,15.7v27.617l7.8-4.077V96.05l-30-15.692V52.732Zm465,51.163L630,121.788l30-15.694,26.4,13.81v-8.159L660,97.933l-30,15.694-26.4-13.81Zm-180,0L450,121.788l30-15.694,26.4,13.81v-8.159L480,97.933l-30,15.694-26.4-13.81Zm-180,0L270,121.788l30-15.694,26.4,13.81v-8.159l-17-8.894L300,97.933l-30,15.694-26.4-13.81Zm-180,0L90,121.788l30-15.694,26.4,13.81v-8.159l-17-8.894L120,97.933,90,113.627,63.6,99.816Zm585-51.163V88.205l-26.4,13.81,7.8,4.079,26.4-13.812V60.895l26.4-13.812L675,43.006Zm-180,0V88.205l-26.4,13.81,7.8,4.079,26.4-13.812V60.895l26.4-13.812L495,43.006Zm-180,0V88.205l-26.4,13.81,7.8,4.079,26.4-13.812V60.895l26.4-13.812L315,43.006Zm-180,0V88.205l-26.4,13.81,7.8,4.079,26.4-13.812V60.895l26.4-13.812L135,43.006Zm525-7.843V80.359L607.2,94.171l7.8,4.077,26.4-13.812V53.046l26.4-13.812L660,35.157Zm-180,0V80.359L427.2,94.171l7.8,4.077,26.4-13.812V53.046l26.4-13.812L480,35.157Zm-180,0V80.359L247.2,94.171l7.8,4.077,26.4-13.812V53.046l26.4-13.812L300,35.157Zm-180,0V80.359L67.2,94.171,75,98.247l26.4-13.812V53.046l26.4-13.812L120,35.157Zm420,27.617L540,90.4l30-15.694,26.4,13.812V80.359L570,66.546,540,82.24,513.6,68.427Zm-180,0L360,90.4l28.2-14.751,1.8-.943L416.4,88.518V80.359L390,66.546,360,82.24,333.6,68.427Zm-180,0L180,90.4l30-15.694,26.4,13.812V80.359L210,66.546,180,82.24,153.6,68.427Zm420-59.01V45.2l30,15.7V88.518l7.8-4.082V56.816l-30-15.7V13.494Zm-180,0V45.2l30,15.7V88.518l7.8-4.082V56.816l-30-15.7V13.494Zm-180,0V45.2l30,15.7V88.518l7.8-4.082V56.816l-30-15.7V13.494Zm-180,0V45.2l30,15.7V88.518l7.8-4.082V56.816l-30-15.7V13.494Zm555-7.847V37.353l30,15.694V80.671l7.8-4.084V48.97l-30-15.7V5.653Zm-180,0V37.353l30,15.694V80.671l7.8-4.084V48.97l-30-15.7V5.653Zm-180,0V37.353l30,15.694V80.671l7.8-4.084V48.97l-30-15.7V5.653Zm-180,0V37.353l30,15.694V80.671l7.8-4.084V48.97l-30-15.7V5.653Zm465,51.165L540,74.705l30-15.694,26.4,13.812V64.663L570,50.853,540,66.546,513.6,52.732Zm-180,0L360,74.705l30-15.694L416.4,72.824V64.663L390,50.853,360,66.546,333.6,52.732Zm-180,0L180,74.705l30-15.694,26.4,13.812V64.663L210,50.853l-10.379,5.426L181.8,65.6l-1.8.944L153.6,52.732Zm450-31.387L630,43.318l12.762-6.677L660,27.623l26.4,13.812V33.27L660,19.464,630,35.157,603.6,21.345Zm-180,0L450,43.318,478.2,28.561l1.8-.939,26.4,13.812V33.27L480,19.464,450,35.157,423.6,21.345Zm-180,0L270,43.318l28.2-14.757,1.8-.939,26.4,13.812V33.27L300,19.464,270,35.157,243.6,21.345Zm-180,0L90,43.318l28.2-14.757,1.8-.939,26.4,13.812V33.27L120,19.464,90,35.157,63.6,21.345Zm540-15.7L630,27.623l30-15.692,26.4,13.8V17.577L660,3.764,636.026,16.31l-4.221,2.211-1.8.943L603.6,5.653Zm-180,0L450,27.623l30-15.692,26.4,13.8V17.577L480,3.764l-17.8,9.315-10.4,5.442-1.8.943L423.6,5.653Zm-180,0L270,27.623l30-15.692,26.4,13.81V17.577L300,3.764,275.334,16.675,271.8,18.521l-1.8.943L243.6,5.653Zm-180,0L90,27.623l30-15.692,26.4,13.8V17.577l-8.109-4.243L120,3.764,93.955,17.39,91.8,18.521l-1.8.943L63.6,5.653ZM52.8,565H52.8ZM720,43.318l11.4-5.966V5.966L742.8,0h14.4L738.6,9.73V41.119L720,50.853Zm-720,0,11.4-5.966V5.966L22.8,0H37.2L18.6,9.73V41.119L0,50.853ZM720,0h7.2l-3.6,1.881V33.27L720,35.157ZM0,0H7.2L3.6,1.881V33.27L0,35.157Z" fill="#b3b3b3" style="mix-blend-mode: multiply;isolation: isolate"/>
      </g>
    </g>
  </g>
</svg>
