<svg id="Group_56746" data-name="Group 56746" xmlns="http://www.w3.org/2000/svg" xmlns:xlink="http://www.w3.org/1999/xlink" width="82.883" height="13.035" viewBox="0 0 82.883 13.035">
  <defs>
    <clipPath id="clip-path">
      <rect id="Rectangle_12824" data-name="Rectangle 12824" width="82.883" height="13.036" transform="translate(0 0)" fill="none"/>
    </clipPath>
  </defs>
  <rect id="Rectangle_12823" data-name="Rectangle 12823" width="54" height="5" transform="translate(28.883 4.82)" fill="#ffcb34"/>
  <g id="Group_56745" data-name="Group 56745">
    <g id="Group_56744" data-name="Group 56744" clip-path="url(#clip-path)">
      <path id="Path_40637" data-name="Path 40637" d="M0,6.519C0,2.36,2.305,0,5.4,0c3.114,0,5.4,2.36,5.4,6.519s-2.287,6.518-5.4,6.518c-3.1,0-5.4-2.359-5.4-6.518m7.868,0c0-2.863-1.008-4.052-2.466-4.052-1.441,0-2.449,1.189-2.449,4.052S3.961,10.57,5.4,10.57c1.458,0,2.466-1.189,2.466-4.051" fill="#ffcb34"/>
      <path id="Path_40638" data-name="Path 40638" d="M16.975.217v12.6H14.058V2.558h-2.52V.217Z" fill="#ffcb34"/>
    </g>
  </g>
</svg>
