<svg xmlns="http://www.w3.org/2000/svg" width="383.299" height="380.502" viewBox="0 0 383.299 380.502">
  <g id="Group_56564" data-name="Group 56564" transform="translate(-140 -3522.498)">
    <path id="Path_39768" data-name="Path 39768" d="M0,0H376V378H0Z" transform="translate(140 3525)" fill="#ffcb34" opacity="0"/>
    <g id="Group_56555" data-name="Group 56555">
      <path id="Path_39759" data-name="Path 39759" d="M0,35.5C0,13,12.811,0,30.765,0S61.529,13,61.529,35.5,48.719,71,30.765,71,0,58.006,0,35.5m38.529,0c0-13.095-3.3-17.169-7.764-17.169S23,22.407,23,35.5s3.3,17.169,7.764,17.169S38.529,48.6,38.529,35.5" transform="translate(402.813 3522.498)" fill="#fff"/>
      <path id="Path_39760" data-name="Path 39760" d="M121.035,51.7V69.452H66.1V55.387l24.777-22.7c4.7-4.365,5.385-6.984,5.385-9.312,0-3.3-2.251-5.335-6.658-5.335a11.225,11.225,0,0,0-10.087,6.305L62.079,15.714C67.075,6.4,76.966,0,91.753,0c16.257,0,27.715,8.342,27.715,21.243,0,6.693-1.763,12.707-11.752,21.631L97.923,51.7Z" transform="translate(402.264 3522.498)" fill="#fff"/>
    </g>
  </g>
</svg>
