<svg xmlns="http://www.w3.org/2000/svg" width="378.357" height="379.193" viewBox="0 0 378.357 379.193">
  <g id="Group_56563" data-name="Group 56563" transform="translate(-140 -3523.807)">
    <path id="Path_39767" data-name="Path 39767" d="M0,0H376V378H0Z" transform="translate(140 3525)" fill="#ffcb34" opacity="0"/>
    <g id="Group_56557" data-name="Group 56557" transform="translate(420 3523.807)">
      <path id="Path_39763" data-name="Path 39763" d="M0,35.5C0,13,12.8,0,30.749,0S61.5,13,61.5,35.5,48.694,71,30.749,71,0,58.006,0,35.5m38.509,0c0-13.095-3.3-17.169-7.76-17.169s-7.76,4.074-7.76,17.169,3.3,17.169,7.76,17.169,7.76-4.074,7.76-17.169" fill="#fff"/>
      <path id="Path_39764" data-name="Path 39764" d="M98.357,1.552V72H75.465V19.468H63.825V1.552Z" transform="translate(0 -1)" fill="#fff"/>
    </g>
  </g>
</svg>
