<svg id="Group_56749" data-name="Group 56749" xmlns="http://www.w3.org/2000/svg" xmlns:xlink="http://www.w3.org/1999/xlink" width="85.664" height="13.035" viewBox="0 0 85.664 13.035">
  <defs>
    <clipPath id="clip-path">
      <rect id="Rectangle_12826" data-name="Rectangle 12826" width="85.665" height="13.036" transform="translate(0 0)" fill="none"/>
    </clipPath>
  </defs>
  <rect id="Rectangle_12825" data-name="Rectangle 12825" width="54" height="4.999" transform="translate(31.665 4.821)" fill="#ffcb34"/>
  <g id="Group_56748" data-name="Group 56748">
    <g id="Group_56747" data-name="Group 56747" clip-path="url(#clip-path)">
      <path id="Path_40639" data-name="Path 40639" d="M0,6.518C0,2.359,2.305,0,5.4,0c3.114,0,5.4,2.36,5.4,6.519s-2.287,6.517-5.4,6.517c-3.1,0-5.4-2.358-5.4-6.517m7.868,0c0-2.863-1.008-4.052-2.466-4.052-1.441,0-2.449,1.189-2.449,4.052s1.008,4.05,2.449,4.05c1.458,0,2.466-1.188,2.466-4.05" fill="#ffcb34"/>
      <path id="Path_40640" data-name="Path 40640" d="M21.531,10.443V12.82H12.006V10.929l4.861-4.591c1.117-1.062,1.315-1.71,1.315-2.322,0-.99-.684-1.567-2.017-1.567A3.082,3.082,0,0,0,13.554,3.71L11.43,2.341a5.854,5.854,0,0,1,5-2.341c2.809,0,4.682,1.442,4.682,3.728,0,1.224-.342,2.34-2.107,3.979l-2.9,2.736Z" fill="#ffcb34"/>
    </g>
  </g>
</svg>
