<svg xmlns="http://www.w3.org/2000/svg" width="382.285" height="380" viewBox="0 0 382.285 380">
  <g id="Group_56565" data-name="Group 56565" transform="translate(-140 -3523)">
    <g id="Group_56556" data-name="Group 56556" transform="translate(401.715 3523)">
      <path id="Path_39761" data-name="Path 39761" d="M0,35.5C0,13,12.8,0,30.749,0S61.5,13,61.5,35.5,48.694,71,30.749,71,0,58.006,0,35.5m38.509,0c0-13.095-3.3-17.169-7.76-17.169s-7.76,4.074-7.76,17.169,3.3,17.169,7.76,17.169,7.76-4.074,7.76-17.169" fill="#fff"/>
      <path id="Path_39762" data-name="Path 39762" d="M120.57,47.724c0,11.641-9.312,23.28-31.04,23.28-9.312,0-19.5-2.037-26.772-6.11l7.76-16.879a37.15,37.15,0,0,0,18.236,4.947c5.141,0,8.827-1.746,8.827-5.238,0-2.909-2.231-4.655-8.051-4.655H80.509V29L90.5,18.819H66.25V1.552h50.634V15.618l-12.61,12.8c10.67,2.619,16.3,9.9,16.3,19.3" fill="#fff"/>
    </g>
    <path id="Path_39769" data-name="Path 39769" d="M0,0H376V378H0Z" transform="translate(140 3525)" fill="#ffcb34" opacity="0.002"/>
  </g>
</svg>
