<svg xmlns="http://www.w3.org/2000/svg" width="30" height="30"><defs><clipPath id="a"><path fill="none" d="M-19957-24406h30v30h-30z" data-name="Rectangle 375"/></clipPath></defs><g clip-path="url(#a)" transform="translate(19957 24406)"><g data-name="Group 3194"><g data-name="Group 1805"><path fill="none" d="m-19950.236-24410.001 28.98 7.77-7.77 28.98-28.98-7.77z" data-name="Rectangle 130"/><path fill="#ffcb34" d="m-19940.01-24386.236-.013-.01Zm-.145-.28.932-.536 1.079-.618a2.544 2.544 0 0 1 3.628.973q.955 1.636 1.93 3.343a2.56 2.56 0 0 1-.991 3.668 6.189 6.189 0 0 1-1.17.472q-.17.058-.35.109c-.325.097-.672.19-1.007.281-.204.05-.365.093-.436.11a5.678 5.678 0 0 1-4.318-.777c-.11-.07-.3-.196-.555-.38-.416-.3-.872-.659-1.354-1.073a23.18 23.18 0 0 1-3.828-4.196 21.031 21.031 0 0 1-1.267-2.026q-.463-.849-.849-1.729a23.757 23.757 0 0 1-1.69-5.815 22.05 22.05 0 0 1-.211-1.834 8.322 8.322 0 0 1-.028-.635 5.386 5.386 0 0 1 1.695-4.101c.064-.058.176-.16.317-.28.239-.206.484-.41.725-.6q.157-.125.305-.236a6.77 6.77 0 0 1 .693-.464 2.555 2.555 0 0 1 3.626.972 344.39 344.39 0 0 1 1.92 3.324 2.552 2.552 0 0 1-.99 3.688l-1.128.653-.858.495-.092.054c.02.137.044.299.078.483a15.22 15.22 0 0 0 .446 1.892 8.032 8.032 0 0 0 .723 1.71 9.101 9.101 0 0 0 .97 1.314 14.88 14.88 0 0 0 1.487 1.466c.168.149.314.266.439.365Zm5.925 4.104q-.973-1.703-1.922-3.33a.671.671 0 0 0-1.052-.282l-1.073.615-.934.536-.422.243a1.411 1.411 0 0 1-1.516-.096 13.584 13.584 0 0 1-.806-.65 16.722 16.722 0 0 1-1.677-1.657 10.942 10.942 0 0 1-1.172-1.592 9.847 9.847 0 0 1-.906-2.115 17.086 17.086 0 0 1-.503-2.13 13.775 13.775 0 0 1-.136-.94 1.4 1.4 0 0 1 .686-1.335l.386-.222.85-.49 1.126-.653a.69.69 0 0 0 .292-1.111c-.429-.758-1.628-2.84-1.904-3.303a.681.681 0 0 0-1.063-.285 5.076 5.076 0 0 0-.492.334 25.565 25.565 0 0 0-.926.75c-.134.114-.231.203-.304.267a3.577 3.577 0 0 0-1.058 2.603c0 .095.006.294.027.585.034.495.096 1.055.192 1.668a21.877 21.877 0 0 0 1.555 5.351q.353.806.775 1.579a19.13 19.13 0 0 0 1.152 1.843 21.303 21.303 0 0 0 3.515 3.853c.44.378.853.702 1.228.972.218.163.374.262.505.343a3.866 3.866 0 0 0 2.793.512 23.256 23.256 0 0 0 1.368-.371c.113-.033.216-.066.314-.098a5.118 5.118 0 0 0 .794-.305.692.692 0 0 0 .308-1.09Z" data-name="Path 35039"/></g></g></g></svg>