<svg xmlns="http://www.w3.org/2000/svg" width="94" height="52"><defs><clipPath id="a"><path d="M5.915 8.457a2.83 2.83 0 0 1-2.873-2.884 2.817 2.817 0 0 1 5.491-.952.241.241 0 0 0 .254.2l2.2-.5c.2-.056.281-.082.225-.308A5.476 5.476 0 0 0 5.889.064 5.572 5.572 0 0 0 .312 5.497a5.473 5.473 0 0 0 5.522 5.487 3.306 3.306 0 0 1 .029 6.611 3.27 3.27 0 0 1-3.24-2.551.331.331 0 0 0-.31-.22l-2.085.475c-.141.027-.225.14-.225.364a6.013 6.013 0 0 0 11.8-1.457 5.861 5.861 0 0 0-5.888-5.749ZM26 .029H14.846c-.2 0-.281.082-.281.278v19.462c0 .2.083.28.281.28H26c.2 0 .281-.082.281-.28v-2.1c0-.2-.085-.28-.281-.28h-8.507a.223.223 0 0 1-.254-.253V11.65c0-.2.083-.28.254-.28h5.859c.17 0 .254-.056.254-.253V8.96c0-.14-.087-.224-.254-.224h-5.859c-.17 0-.254-.113-.254-.308v-5.43c0-.2.083-.306.254-.306H26c.2 0 .281-.086.281-.282V.31C26.28.113 26.2.029 26 .029Zm14.449 0H29.3c-.2 0-.281.082-.281.278v19.462c0 .2.085.28.281.28h11.15c.2 0 .281-.082.281-.28v-2.1c0-.2-.083-.28-.281-.28h-8.508a.224.224 0 0 1-.254-.253V11.65c0-.2.085-.28.254-.28H37.8c.17 0 .254-.056.254-.253V8.96c0-.14-.087-.224-.254-.224h-5.858c-.168 0-.254-.113-.254-.308v-5.43c0-.2.085-.306.254-.306h8.508c.2 0 .281-.086.281-.282V.31c0-.197-.082-.281-.281-.281ZM54.9 0H43.746c-.2 0-.281.086-.281.28v2.1c0 .2.085.28.281.28h3.971c.2 0 .281.084.281.282v16.829c0 .2.085.28.281.28h2.113c.2 0 .283-.082.283-.28V2.94c0-.2.085-.282.281-.282H54.9c.2 0 .281-.082.281-.28v-2.1C55.181.086 55.1 0 54.9 0Zm11.973 20.05h2.31a.357.357 0 0 0 .31-.559h.029l-3.747-8.341a.164.164 0 0 1-.029-.113.223.223 0 0 1 .2-.253 5.5 5.5 0 0 0 3.607-5.123A5.628 5.628 0 0 0 63.974.034H58.2c-.2 0-.281.082-.281.278V19.77c0 .2.083.28.281.28h2.113c.2 0 .281-.082.281-.28v-8.371a.223.223 0 0 1 .254-.253h1.6a.4.4 0 0 1 .254.138l3.857 8.542a.307.307 0 0 0 .314.224ZM60.845 8.457c-.171 0-.254-.111-.254-.306V2.997c0-.2.083-.278.254-.278h3.127a2.907 2.907 0 0 1 2.846 2.856 2.859 2.859 0 0 1-2.846 2.884h-3.127ZM83.717.197h-2.112c-.2 0-.281.082-.281.278v13.443c0 2.045-1.324 3.668-3.156 3.668-1.944 0-3.183-1.624-3.183-3.7V.475c0-.2-.085-.278-.281-.278h-2.112c-.2 0-.283.082-.283.278v13.443a6.106 6.106 0 0 0 5.861 6.3c3.352 0 5.83-3.051 5.83-6.3V.475c0-.193-.085-.278-.283-.278Zm-77.8 30.04a2.829 2.829 0 0 1-2.873-2.882 2.817 2.817 0 0 1 5.491-.954.239.239 0 0 0 .254.2l2.2-.5c.2-.054.281-.084.225-.308a5.472 5.472 0 0 0-5.323-3.947 5.572 5.572 0 0 0-5.577 5.433 5.474 5.474 0 0 0 5.522 5.487 3.304 3.304 0 0 1 .029 6.607 3.269 3.269 0 0 1-3.24-2.547.33.33 0 0 0-.31-.222l-2.085.475c-.141.027-.225.138-.225.364a6.013 6.013 0 0 0 11.8-1.457 5.862 5.862 0 0 0-5.89-5.749ZM26 21.781H14.846c-.2 0-.281.084-.281.28v2.1c0 .2.083.28.281.28h3.971c.2 0 .281.084.281.282V41.55c0 .2.083.28.281.28h2.112c.2 0 .281-.084.281-.28V24.721c0-.2.085-.282.281-.282H26c.2 0 .281-.082.281-.28v-2.1c-.001-.193-.081-.278-.281-.278Zm14.42.2h-2.11c-.2 0-.281.086-.281.282v13.441c0 2.042-1.325 3.666-3.154 3.666-1.944 0-3.183-1.624-3.183-3.694V22.258c0-.2-.083-.282-.281-.282H29.3c-.2 0-.281.086-.281.282v13.441a6.107 6.107 0 0 0 5.859 6.3c3.352 0 5.832-3.053 5.832-6.3V22.258c-.01-.197-.09-.281-.289-.281Zm8.932-.167H43.8c-.2 0-.281.084-.281.28V41.55c0 .2.083.28.281.28h5.549a5.837 5.837 0 0 0 5.8-5.8v-8.429a5.877 5.877 0 0 0-5.796-5.791Zm3.21 14.029a3.224 3.224 0 0 1-3.21 3.221h-2.9a.223.223 0 0 1-.254-.253V24.89c0-.2.083-.28.254-.28h2.9a3.241 3.241 0 0 1 3.21 3.219Zm7.747-14.057H58.2c-.2 0-.279.084-.279.28v19.431c0 .2.085.282.279.282h2.113c.2 0 .281-.084.281-.282V22.061c-.002-.195-.086-.28-.285-.28Zm9.182-.027a6.218 6.218 0 0 0-6.028 6.328v7.419a6.023 6.023 0 1 0 12.029 0v-7.419a6.25 6.25 0 0 0-6.001-6.337Zm3.3 13.747a3.34 3.34 0 1 1-6.647 0V28.05a3.336 3.336 0 1 1 6.647-.029Z" data-name="Path 33945"/></clipPath></defs><g data-name="Group 3187"><path fill="none" d="M0 0h94v52H0z" data-name="Rectangle 369"/><g clip-path="url(#a)" data-name="Group 941" transform="translate(5 5)"><g data-name="Group 541"><path fill="#ffc10e" d="m-44.975 12.38 95.9-90.857.17.177-95.902 90.857Z" data-name="Path 33946"/></g><g data-name="Group 542"><path fill="#ffc10e" d="m-44.166 13.221-.17-.176 95.791-90.943.17.176Z" data-name="Path 33751"/></g><g data-name="Group 543"><path fill="#ffc10e" d="m-43.792 13.61 95.9-90.856.168.176-95.9 90.857Z" data-name="Path 33947"/></g><g data-name="Group 544"><path fill="#ffc10e" d="m-43.247 14.178 95.9-90.857.17.177-95.902 90.857Z" data-name="Path 33948"/></g><g data-name="Group 545"><path fill="#ffc10e" d="m-42.451 15.006-.168-.176 95.791-90.943.168.174Z" data-name="Path 33752"/></g><g data-name="Group 546"><path fill="#ffc10e" d="m-42.105 15.367 95.9-90.857.17.177-95.902 90.857Z" data-name="Path 33949"/></g><g data-name="Group 547"><path fill="#ffc10e" d="m-41.531 15.962 95.9-90.857.17.177-95.902 90.857Z" data-name="Path 33950"/></g><g data-name="Group 548"><path fill="#ffc10e" d="m-40.939 16.584 95.9-90.856.168.176-95.9 90.857Z" data-name="Path 33951"/></g><g data-name="Group 549"><path fill="#ffc10e" d="m-40.375 17.166 95.9-90.856.168.176-95.9 90.857Z" data-name="Path 33952"/></g><g data-name="Group 550"><path fill="#ffc10e" d="m-39.798 17.768 95.9-90.856.168.176-95.9 90.857Z" data-name="Path 33953"/></g><g data-name="Group 551"><path fill="#ffc10e" d="m-39.022 18.576-.17-.174L56.6-72.544l.17.176Z" data-name="Path 33753"/></g><g data-name="Group 552"><path fill="#ffc10e" d="m-38.452 19.171-.168-.176 95.792-90.944.168.176Z" data-name="Path 33754"/></g><g data-name="Group 553"><path fill="#ffc10e" d="m-38.103 19.534 95.902-90.858.169.176-95.903 90.859Z" data-name="Path 33954"/></g><g data-name="Group 554"><path fill="#ffc10e" d="m-37.497 20.168 95.9-90.856.168.176-95.9 90.857Z" data-name="Path 33955"/></g><g data-name="Group 555"><path fill="#ffc10e" d="m-36.972 20.71 95.9-90.857.17.177-95.902 90.857Z" data-name="Path 33956"/></g><g data-name="Group 556"><path fill="#ffc10e" d="m-36.163 21.55-.17-.174 95.79-90.943.17.176Z" data-name="Path 33755"/></g><g data-name="Group 557"><path fill="#ffc10e" d="m-35.806 21.927 95.9-90.856.168.176-95.9 90.857Z" data-name="Path 33957"/></g><g data-name="Group 558"><path fill="#ffc10e" d="m-35.23 22.52 95.9-90.856.168.176-95.9 90.857Z" data-name="Path 33958"/></g><g data-name="Group 559"><path fill="#ffc10e" d="m-34.664 23.117 95.9-90.856.168.176-95.9 90.857Z" data-name="Path 33959"/></g><g data-name="Group 560"><path fill="#ffc10e" d="m-34.086 23.712 95.9-90.856.168.176-95.9 90.857Z" data-name="Path 33960"/></g><g data-name="Group 561"><path fill="#ffc10e" d="m-32.95 24.9 95.9-90.856.168.177-95.9 90.856Z" data-name="Path 33961"/></g><g data-name="Group 562"><path fill="#ffc10e" d="m-31.806 26.091 95.9-90.856.168.176-95.9 90.857Z" data-name="Path 33962"/></g><g data-name="Group 563"><path fill="#ffc10e" d="m-30.447 27.502-.168-.176 95.791-90.944.17.176Z" data-name="Path 33756"/></g><g data-name="Group 564"><path fill="#ffc10e" d="m-29.303 28.694-.17-.176 95.791-90.944.17.174Z" data-name="Path 33757"/></g><g data-name="Group 565"><path fill="#ffc10e" d="m-28.375 29.661 95.9-90.856.168.176-95.9 90.857Z" data-name="Path 33963"/></g><g data-name="Group 566"><path fill="#ffc10e" d="m-27.232 30.853 95.9-90.856.168.176-95.9 90.857Z" data-name="Path 33964"/></g><g data-name="Group 567"><path fill="#ffc10e" d="m-26.089 32.042 95.9-90.856.168.177-95.9 90.856Z" data-name="Path 33965"/></g><g data-name="Group 568"><path fill="#ffc10e" d="m-24.731 33.453-.168-.176 95.791-90.945.17.176Z" data-name="Path 33758"/></g><g data-name="Group 569"><path fill="#ffc10e" d="m-23.801 34.422 95.9-90.856.168.176-95.9 90.857Z" data-name="Path 33966"/></g><g data-name="Group 570"><path fill="#ffc10e" d="m-22.655 35.612 95.9-90.856.168.176-95.9 90.857Z" data-name="Path 33967"/></g><g data-name="Group 571"><path fill="#ffc10e" d="m-21.514 36.802 95.9-90.856.168.176-95.9 90.857Z" data-name="Path 33968"/></g><g data-name="Group 572"><path fill="#ffc10e" d="m-20.155 38.212-.168-.176 95.79-90.943.17.176Z" data-name="Path 33759"/></g><g data-name="Group 573"><path fill="#ffc10e" d="m-19.225 39.184 95.9-90.856.168.176-95.9 90.857Z" data-name="Path 33969"/></g><g data-name="Group 574"><path fill="#ffc10e" d="m-18.083 40.372 95.9-90.856.168.176-95.9 90.857Z" data-name="Path 33970"/></g><g data-name="Group 575"><path fill="#ffc10e" d="m-16.94 41.562 95.9-90.856.168.176-95.9 90.857Z" data-name="Path 33971"/></g><g data-name="Group 576"><path fill="#ffc10e" d="m-15.582 42.975-.17-.176 95.791-90.945.17.176Z" data-name="Path 33760"/></g><g data-name="Group 577"><path fill="#ffc10e" d="m-14.651 43.944 95.9-90.856.168.176-95.9 90.857Z" data-name="Path 33972"/></g><g data-name="Group 578"><path fill="#ffc10e" d="m-13.509 45.131 95.9-90.856.168.177-95.9 90.856Z" data-name="Path 33973"/></g><g data-name="Group 579"><path fill="#ffc10e" d="m-12.364 46.321 95.9-90.856.168.176-95.9 90.857Z" data-name="Path 33974"/></g><g data-name="Group 580"><path fill="#ffc10e" d="m-11.221 47.511 95.9-90.856.168.176-95.9 90.857Z" data-name="Path 33975"/></g><g data-name="Group 581"><path fill="#ffc10e" d="M-10.052 48.731 85.771-42.18l.168.176-95.823 90.912Z" data-name="Path 33976"/></g><g data-name="Group 582"><path fill="#ffc10e" d="m-8.723 50.113-.168-.176 95.789-90.943.171.176Z" data-name="Path 33761"/></g><g data-name="Group 583"><path fill="#ffc10e" d="m-7.767 51.107 95.899-90.855.168.177-95.899 90.855Z" data-name="Path 33977"/></g><g data-name="Group 584"><path fill="#ffc10e" d="m-6.436 52.494-.168-.176 95.789-90.943.17.176Z" data-name="Path 33762"/></g><g data-name="Group 585"><path fill="#ffc10e" d="m-5.294 53.684-.168-.176 95.791-90.944.17.176Z" data-name="Path 33763"/></g><g data-name="Group 586"><path fill="#ffc10e" d="m-4.362 54.656 95.9-90.856.168.177-95.9 90.856Z" data-name="Path 33978"/></g><g data-name="Group 587"><path fill="#ffc10e" d="m-3.194 55.871 95.9-90.856.168.176-95.9 90.857Z" data-name="Path 33979"/></g><g data-name="Group 588"><path fill="#ffc10e" d="m-2.075 57.034 95.9-90.856.168.176-95.9 90.857Z" data-name="Path 33980"/></g><g data-name="Group 589"><path fill="#ffc10e" d="m-.718 58.444-.168-.174 95.789-90.945.17.174Z" data-name="Path 33764"/></g><g data-name="Group 590"><path fill="#ffc10e" d="m.239 59.441 95.821-90.91.169.177L.407 59.618Z" data-name="Path 33981"/></g><g data-name="Group 591"><path fill="#ffc10e" d="m1.358 60.605 95.9-90.856.168.176-95.9 90.857Z" data-name="Path 33982"/></g><g data-name="Group 592"><path fill="#ffc10e" d="m2.711 62.015-.17-.176 95.791-90.944.171.176Z" data-name="Path 33765"/></g><g data-name="Group 593"><path fill="#ffc10e" d="m3.856 63.205-.17-.176 95.791-90.945.17.176Z" data-name="Path 33766"/></g><g data-name="Group 594"><path fill="#ffc10e" d="m4.998 64.397-.17-.176 95.791-90.945.17.176Z" data-name="Path 33767"/></g><g data-name="Group 595"><path fill="#ffc10e" d="m6.14 65.586-.168-.177 95.791-90.944.17.174Z" data-name="Path 33768"/></g><g data-name="Group 596"><path fill="#ffc10e" d="m7.285 66.775-.17-.176 95.791-90.945.17.176Z" data-name="Path 33769"/></g><g data-name="Group 597"><path fill="#ffc10e" d="m8.215 67.744 95.9-90.856.168.176-95.9 90.857Z" data-name="Path 33983"/></g><g data-name="Group 598"><path fill="#ffc10e" d="m9.57 69.156-.168-.181 95.791-90.94.17.176Z" data-name="Path 33770"/></g><g data-name="Group 599"><path fill="#ffc10e" d="m10.502 70.125 95.9-90.856.168.176-95.9 90.857Z" data-name="Path 33984"/></g><g data-name="Group 600"><path fill="#ffc10e" d="m11.856 71.536-.168-.176 95.791-90.945.17.176Z" data-name="Path 33771"/></g><g data-name="Group 601"><path fill="#ffc10e" d="m13.001 72.728-.17-.176 95.791-90.945.17.176Z" data-name="Path 33772"/></g><g data-name="Group 602"><path fill="#ffc10e" d="m14.145 73.915-.17-.176 95.791-90.945.17.176Z" data-name="Path 33773"/></g><g data-name="Group 603"><path fill="#ffc10e" d="m15.077 74.885 95.9-90.856.168.176-95.9 90.857Z" data-name="Path 33985"/></g><g data-name="Group 604"><path fill="#ffc10e" d="m16.432 76.295-.17-.176 95.79-90.943.17.174Z" data-name="Path 33774"/></g><g data-name="Group 605"><path fill="#ffc10e" d="m17.576 77.487-.17-.176 95.789-90.945.17.176Z" data-name="Path 33775"/></g><g data-name="Group 606"><path fill="#ffc10e" d="m18.719 78.677-.17-.176 95.791-90.944.17.176Z" data-name="Path 33776"/></g><g data-name="Group 607"><path fill="#ffc10e" d="m19.65 79.645 95.9-90.856.168.176-95.9 90.857Z" data-name="Path 33986"/></g><g data-name="Group 608"><path fill="#ffc10e" d="m20.795 80.831 95.899-90.855.168.177-95.899 90.855Z" data-name="Path 33987"/></g><g data-name="Group 609"><path fill="#ffc10e" d="m22.148 82.246-.168-.176 95.789-90.943.17.176Z" data-name="Path 33777"/></g><g data-name="Group 610"><path fill="#ffc10e" d="m23.291 83.437-.168-.176 95.791-90.944.17.176Z" data-name="Path 33778"/></g><g data-name="Group 611"><path fill="#ffc10e" d="m24.224 84.402 95.9-90.856.168.176-95.9 90.857Z" data-name="Path 33988"/></g><g data-name="Group 612"><path fill="#ffc10e" d="m25.391 85.622 95.823-90.911.168.176L25.56 85.8Z" data-name="Path 33989"/></g><g data-name="Group 613"><path fill="#ffc10e" d="m26.722 87.008-.17-.176 95.791-90.941.169.176Z" data-name="Path 33779"/></g><g data-name="Group 614"><path fill="#ffc10e" d="m27.864 88.196-.17-.176 95.791-90.943.17.176Z" data-name="Path 33780"/></g><g data-name="Group 615"><path fill="#ffc10e" d="m28.796 89.169 95.9-90.856.168.176-95.9 90.857Z" data-name="Path 33990"/></g><g data-name="Group 616"><path fill="#ffc10e" d="M29.941 90.355 125.843-.503l.168.177-95.902 90.858Z" data-name="Path 33991"/></g><g data-name="Group 617"><path fill="#ffc10e" d="m-33.304 24.528-.17-.176 95.791-90.944.17.176Z" data-name="Path 33781"/></g><g data-name="Group 618"><path fill="#ffc10e" d="m-32.162 25.716-.168-.176 95.791-90.944.17.176Z" data-name="Path 33782"/></g><g data-name="Group 619"><path fill="#ffc10e" d="M-31.208 26.708 64.627-64.19l.169.177-95.836 90.898Z" data-name="Path 33992"/></g><g data-name="Group 620"><path fill="#ffc10e" d="m-30.085 27.878 95.9-90.856.168.176-95.9 90.857Z" data-name="Path 33993"/></g><g data-name="Group 621"><path fill="#ffc10e" d="m-28.73 29.289-.17-.176 95.791-90.946.17.176Z" data-name="Path 33783"/></g><g data-name="Group 622"><path fill="#ffc10e" d="m-27.773 30.283 95.821-90.91.169.177-95.822 90.91Z" data-name="Path 33994"/></g><g data-name="Group 623"><path fill="#ffc10e" d="m-26.657 31.446 95.9-90.856.168.176-95.9 90.857Z" data-name="Path 33995"/></g><g data-name="Group 624"><path fill="#ffc10e" d="m-25.301 32.857-.17-.176L70.32-58.262l.17.174Z" data-name="Path 33784"/></g><g data-name="Group 625"><path fill="#ffc10e" d="m-24.369 33.829 95.9-90.856.168.176-95.9 90.857Z" data-name="Path 33996"/></g><g data-name="Group 626"><path fill="#ffc10e" d="m-23.014 35.238-.17-.176 95.791-90.945.17.176Z" data-name="Path 33785"/></g><g data-name="Group 627"><path fill="#ffc10e" d="m-22.086 36.207 95.9-90.856.168.176-95.9 90.857Z" data-name="Path 33997"/></g><g data-name="Group 628"><path fill="#ffc10e" d="m-19.772 38.614 95.9-90.856.168.176-95.9 90.857Z" data-name="Path 33998"/></g><g data-name="Group 629"><path fill="#ffc10e" d="m-17.298 41.188-.168-.176 95.791-90.943.17.174Z" data-name="Path 33786"/></g><g data-name="Group 630"><path fill="#ffc10e" d="m-15.195 43.376 95.823-90.911.168.176-95.823 90.912Z" data-name="Path 33999"/></g><g data-name="Group 631"><path fill="#ffc10e" d="m-12.725 45.949-.168-.176 95.791-90.945.17.176Z" data-name="Path 33787"/></g><g data-name="Group 632"><path fill="#ffc10e" d="m-10.651 48.108 95.9-90.856.168.176-95.9 90.857Z" data-name="Path 34000"/></g><g data-name="Group 633"><path fill="#ffc10e" d="m-8.365 50.488 95.9-90.856.168.176-95.9 90.857Z" data-name="Path 34001"/></g><g data-name="Group 634"><path fill="#ffc10e" d="m-5.864 53.09-.168-.177L89.757-38.03l.17.176Z" data-name="Path 33788"/></g><g data-name="Group 635"><path fill="#ffc10e" d="m-3.577 55.47-.17-.174 95.791-90.945.17.174Z" data-name="Path 33789"/></g><g data-name="Group 636"><path fill="#ffc10e" d="m-1.503 57.629 95.9-90.856.168.176-95.9 90.857Z" data-name="Path 34002"/></g><g data-name="Group 637"><path fill="#ffc10e" d="m.996 60.231-.168-.181 95.789-90.94.17.176Z" data-name="Path 33790"/></g><g data-name="Group 638"><path fill="#ffc10e" d="m3.071 62.389 95.9-90.856.168.176-95.9 90.857Z" data-name="Path 34003"/></g><g data-name="Group 639"><path fill="#ffc10e" d="m5.57 64.992-.17-.176 95.791-90.947.17.176Z" data-name="Path 33791"/></g><g data-name="Group 640"><path fill="#ffc10e" d="m7.645 67.152 95.9-90.856.168.176-95.9 90.857Z" data-name="Path 34004"/></g><g data-name="Group 641"><path fill="#ffc10e" d="m9.93 69.53 95.9-90.856.168.177-95.9 90.856Z" data-name="Path 34005"/></g><g data-name="Group 642"><path fill="#ffc10e" d="m12.244 71.935 95.899-90.855.168.177-95.899 90.855Z" data-name="Path 34006"/></g><g data-name="Group 643"><path fill="#ffc10e" d="m14.505 74.292 95.9-90.856.168.176-95.9 90.857Z" data-name="Path 34007"/></g><g data-name="Group 644"><path fill="#ffc10e" d="m17.004 76.893-.17-.176 95.789-90.945.17.174Z" data-name="Path 33792"/></g><g data-name="Group 645"><path fill="#ffc10e" d="m19.08 79.05 95.899-90.855.168.177-95.899 90.855Z" data-name="Path 34008"/></g><g data-name="Group 646"><path fill="#ffc10e" d="m-20.942 37.396 95.9-90.856.168.176-95.9 90.857Z" data-name="Path 34009"/></g><g data-name="Group 647"><path fill="#ffc10e" d="m-18.443 39.997-.168-.176L77.18-51.12l.17.176Z" data-name="Path 33793"/></g><g data-name="Group 648"><path fill="#ffc10e" d="m-16.342 42.184 95.9-90.856.168.176-95.9 90.857Z" data-name="Path 34010"/></g><g data-name="Group 649"><path fill="#ffc10e" d="m-14.079 44.539 95.9-90.856.168.176-95.9 90.857Z" data-name="Path 34011"/></g><g data-name="Group 650"><path fill="#ffc10e" d="m-11.768 46.945 95.9-90.856.168.176-95.9 90.857Z" data-name="Path 34012"/></g><g data-name="Group 651"><path fill="#ffc10e" d="m-9.509 49.298 95.9-90.856.168.176-95.9 90.857Z" data-name="Path 34013"/></g><g data-name="Group 652"><path fill="#ffc10e" d="m-7.008 51.898-.168-.179 95.789-90.94.17.176Z" data-name="Path 33794"/></g><g data-name="Group 653"><path fill="#ffc10e" d="M-4.932 54.058 90.97-36.8l.168.177-95.902 90.858Z" data-name="Path 34014"/></g><g data-name="Group 654"><path fill="#ffc10e" d="m-2.644 56.44 95.899-90.855.168.177-95.899 90.855Z" data-name="Path 34015"/></g><g data-name="Group 655"><path fill="#ffc10e" d="m-.358 58.819 95.9-90.856.168.176-95.9 90.857Z" data-name="Path 34016"/></g><g data-name="Group 656"><path fill="#ffc10e" d="m1.927 61.2 95.9-90.856.168.176-95.9 90.857Z" data-name="Path 34017"/></g><g data-name="Group 657"><path fill="#ffc10e" d="m4.234 63.601 95.835-90.898.169.177L4.402 63.778Z" data-name="Path 34018"/></g><g data-name="Group 658"><path fill="#ffc10e" d="m6.713 66.181-.168-.176 95.789-90.945.171.176Z" data-name="Path 33795"/></g><g data-name="Group 659"><path fill="#ffc10e" d="m8.813 68.367 95.9-90.856.168.176-95.9 90.857Z" data-name="Path 34019"/></g><g data-name="Group 660"><path fill="#ffc10e" d="m11.076 70.721 95.9-90.856.168.176-95.9 90.857Z" data-name="Path 34020"/></g><g data-name="Group 661"><path fill="#ffc10e" d="m13.361 73.099 95.9-90.856.168.176-95.9 90.857Z" data-name="Path 34021"/></g><g data-name="Group 662"><path fill="#ffc10e" d="m15.651 75.481 95.898-90.854.168.176L15.82 75.658Z" data-name="Path 34022"/></g><g data-name="Group 663"><path fill="#ffc10e" d="m17.935 77.86 95.9-90.856.168.177-95.9 90.856Z" data-name="Path 34023"/></g><g data-name="Group 664"><path fill="#ffc10e" d="m20.434 80.461-.17-.176 95.791-90.945.17.176Z" data-name="Path 33796"/></g><g data-name="Group 665"><path fill="#ffc10e" d="m21.576 81.652-.168-.176 95.791-90.945.17.176Z" data-name="Path 33797"/></g><g data-name="Group 666"><path fill="#ffc10e" d="m22.51 82.621 95.9-90.856.168.176-95.9 90.857Z" data-name="Path 34024"/></g><g data-name="Group 667"><path fill="#ffc10e" d="m23.653 83.81 95.9-90.856.168.176-95.9 90.857Z" data-name="Path 34025"/></g><g data-name="Group 668"><path fill="#ffc10e" d="m25.005 85.222-.168-.176 95.791-90.944.17.176Z" data-name="Path 33798"/></g><g data-name="Group 669"><path fill="#ffc10e" d="m26.15 86.411-.17-.176 95.791-90.943.17.176Z" data-name="Path 33799"/></g><g data-name="Group 670"><path fill="#ffc10e" d="m27.292 87.602-.168-.174 95.791-90.944.17.176Z" data-name="Path 33800"/></g><g data-name="Group 671"><path fill="#ffc10e" d="m29.368 89.76 95.9-90.856.168.176-95.9 90.857Z" data-name="Path 34026"/></g><g data-name="Group 672"><path fill="#ffc10e" d="m28.437 88.794-.17-.176L124.06-2.327l.17.176Z" data-name="Path 33801"/></g><g data-name="Group 673"><path fill="#ffc10e" d="m30.721 91.171-.168-.176L126.344.052l.171.176Z" data-name="Path 33802"/></g><g data-name="Group 674"><path fill="#ffc10e" d="m31.655 92.143 95.9-90.856.168.176-95.9 90.857Z" data-name="Path 34027"/></g><g data-name="Group 675"><path fill="#ffc10e" d="m32.799 93.331 95.9-90.856.168.176-95.9 90.857Z" data-name="Path 34028"/></g><g data-name="Group 676"><path fill="#ffc10e" d="m33.961 94.546 95.835-90.898.169.177-95.836 90.898Z" data-name="Path 34029"/></g><g data-name="Group 677"><path fill="#ffc10e" d="m35.297 95.934-.17-.176 95.791-90.943.17.174Z" data-name="Path 33803"/></g><g data-name="Group 678"><path fill="#ffc10e" d="m36.232 96.902 95.9-90.856.168.176L36.4 97.08Z" data-name="Path 34030"/></g><g data-name="Group 679"><path fill="#ffc10e" d="M31.109 91.576 127.009.72l.168.176-95.9 90.857Z" data-name="Path 34031"/></g><g data-name="Group 680"><path fill="#ffc10e" d="m32.438 92.958-.168-.176 95.789-90.943.17.176Z" data-name="Path 33804"/></g><g data-name="Group 681"><path fill="#ffc10e" d="m33.582 94.149-.17-.176 95.789-90.944.17.176Z" data-name="Path 33805"/></g><g data-name="Group 682"><path fill="#ffc10e" d="m34.54 95.144 95.9-90.856.168.176-95.9 90.857Z" data-name="Path 34032"/></g><g data-name="Group 683"><path fill="#ffc10e" d="M35.657 96.304 131.555 5.45l.168.176-95.898 90.855Z" data-name="Path 34033"/></g><g data-name="Group 684"><path fill="#ffc10e" d="m37.012 97.719-.168-.176 95.791-90.945.17.176Z" data-name="Path 33806"/></g><g data-name="Group 685"><path fill="#ffc10e" d="m37.373 98.089 95.899-90.855.168.177-95.899 90.855Z" data-name="Path 34034"/></g><g data-name="Group 686"><path fill="#ffc10e" d="m38.156 98.908-.17-.176 95.791-90.943.17.176Z" data-name="Path 33807"/></g><g data-name="Group 687"><path fill="#ffc10e" d="m38.726 99.504-.168-.174 95.789-90.944.17.174Z" data-name="Path 33808"/></g><g data-name="Group 688"><path fill="#ffc10e" d="m39.298 100.099-.168-.176 95.79-90.945.171.176Z" data-name="Path 33809"/></g><g data-name="Group 689"><path fill="#ffc10e" d="m39.871 100.693-.17-.176 95.791-90.944.169.176Z" data-name="Path 33810"/></g><g data-name="Group 690"><path fill="#ffc10e" d="m40.802 101.659 95.9-90.856.168.176-95.9 90.857Z" data-name="Path 34035"/></g><g data-name="Group 691"><path fill="#ffc10e" d="m42.157 103.074-.17-.176 95.791-90.944.17.176Z" data-name="Path 33811"/></g><g data-name="Group 692"><path fill="#ffc10e" d="m43.3 104.264-.168-.176 95.789-90.945.17.176Z" data-name="Path 33812"/></g><g data-name="Group 693"><path fill="#ffc10e" d="m44.442 105.452-.168-.176 95.79-90.941.17.176Z" data-name="Path 33813"/></g><g data-name="Group 694"><path fill="#ffc10e" d="m45.587 106.644-.168-.176 95.789-90.945.17.176Z" data-name="Path 33814"/></g><g data-name="Group 695"><path fill="#ffc10e" d="m46.522 107.614 95.9-90.856.168.176-95.9 90.857Z" data-name="Path 34036"/></g><g data-name="Group 696"><path fill="#ffc10e" d="m47.661 108.806 95.9-90.856.168.176-95.9 90.857Z" data-name="Path 34037"/></g><g data-name="Group 697"><path fill="#ffc10e" d="m49.016 110.215-.17-.176 95.792-90.944.17.176Z" data-name="Path 33815"/></g><g data-name="Group 698"><path fill="#ffc10e" d="m50.16 111.405-.168-.176 95.789-90.944.17.176Z" data-name="Path 33816"/></g><g data-name="Group 699"><path fill="#ffc10e" d="m51.303 112.595-.168-.176 95.791-90.944.17.174Z" data-name="Path 33817"/></g><g data-name="Group 700"><path fill="#ffc10e" d="m52.445 113.782-.168-.176 95.792-90.946.17.176Z" data-name="Path 33818"/></g><g data-name="Group 701"><path fill="#ffc10e" d="m53.379 114.752 95.899-90.855.168.177-95.899 90.855Z" data-name="Path 34038"/></g><g data-name="Group 702"><path fill="#ffc10e" d="m54.732 116.166-.168-.176 95.791-90.944.17.176Z" data-name="Path 33819"/></g><g data-name="Group 703"><path fill="#ffc10e" d="m55.878 117.355-.17-.176 95.789-90.944.17.176Z" data-name="Path 33820"/></g><g data-name="Group 704"><path fill="#ffc10e" d="m56.838 118.351 95.9-90.856.168.176-95.9 90.857Z" data-name="Path 34039"/></g><g data-name="Group 705"><path fill="#ffc10e" d="m58.165 119.736-.168-.176 95.791-90.944.169.174Z" data-name="Path 33821"/></g><g data-name="Group 706"><path fill="#ffc10e" d="m59.096 120.706 95.9-90.856.168.176-95.9 90.857Z" data-name="Path 34040"/></g><g data-name="Group 707"><path fill="#ffc10e" d="m60.45 122.116-.17-.176 95.791-90.943.171.174Z" data-name="Path 33822"/></g><g data-name="Group 708"><path fill="#ffc10e" d="m40.234 101.067 95.9-90.856.168.177-95.9 90.856Z" data-name="Path 34041"/></g><g data-name="Group 709"><path fill="#ffc10e" d="m41.585 102.478-.17-.174 95.791-90.946.17.176Z" data-name="Path 33823"/></g><g data-name="Group 710"><path fill="#ffc10e" d="m42.728 103.669-.168-.176 95.79-90.945.17.176Z" data-name="Path 33824"/></g><g data-name="Group 711"><path fill="#ffc10e" d="m43.661 104.632 95.9-90.856.168.176-95.9 90.857Z" data-name="Path 34042"/></g><g data-name="Group 712"><path fill="#ffc10e" d="m44.83 105.855 95.9-90.856.168.176-95.9 90.857Z" data-name="Path 34043"/></g><g data-name="Group 713"><path fill="#ffc10e" d="m45.976 107.045 95.899-90.855.168.177-95.899 90.855Z" data-name="Path 34044"/></g><g data-name="Group 714"><path fill="#ffc10e" d="m47.301 108.428-.17-.176 95.791-90.943.17.176Z" data-name="Path 33825"/></g><g data-name="Group 715"><path fill="#ffc10e" d="m48.228 109.396 95.888-90.843.169.176-95.889 90.844Z" data-name="Path 34045"/></g><g data-name="Group 716"><path fill="#ffc10e" d="m49.401 110.614 95.823-90.911.168.176-95.823 90.912Z" data-name="Path 34046"/></g><g data-name="Group 717"><path fill="#ffc10e" d="m50.733 112-.17-.176 95.789-90.944.171.176Z" data-name="Path 33826"/></g><g data-name="Group 718"><path fill="#ffc10e" d="m51.658 112.969 95.888-90.843.169.176-95.889 90.844Z" data-name="Path 34047"/></g><g data-name="Group 719"><path fill="#ffc10e" d="m53.017 114.379-.168-.176L148.64 23.26l.17.176Z" data-name="Path 33827"/></g><g data-name="Group 720"><path fill="#ffc10e" d="M53.981 115.375 149.88 24.52l.168.177-95.899 90.855Z" data-name="Path 34048"/></g><g data-name="Group 721"><path fill="#ffc10e" d="m55.306 116.759-.169-.174 95.791-90.944.17.176Z" data-name="Path 33828"/></g><g data-name="Group 722"><path fill="#ffc10e" d="m56.237 117.721 95.9-90.856.168.176-95.9 90.857Z" data-name="Path 34049"/></g><g data-name="Group 723"><path fill="#ffc10e" d="m57.38 118.913 95.9-90.856.168.176-95.9 90.857Z" data-name="Path 34050"/></g><g data-name="Group 724"><path fill="#ffc10e" d="m58.735 120.329-.168-.176 95.789-90.943.171.176Z" data-name="Path 33829"/></g><g data-name="Group 725"><path fill="#ffc10e" d="m59.691 121.324 95.823-90.911.168.176-95.823 90.912Z" data-name="Path 34051"/></g><g data-name="Group 726"><path fill="#ffc10e" d="m61.022 122.71-.17-.176 95.791-90.943.17.176Z" data-name="Path 33830"/></g><g data-name="Group 727"><path fill="#ffc10e" d="m61.595 123.304-.17-.174 95.791-90.945.17.176Z" data-name="Path 33831"/></g><g data-name="Group 728"><path fill="#ffc10e" d="m62.165 123.899-.17-.174 95.791-90.943.171.176Z" data-name="Path 33832"/></g><g data-name="Group 729"><path fill="#ffc10e" d="m62.739 124.495-.17-.176 95.789-90.943.17.174Z" data-name="Path 33833"/></g><g data-name="Group 730"><path fill="#ffc10e" d="m63.309 125.091-.17-.176 95.791-90.944.17.176Z" data-name="Path 33834"/></g><g data-name="Group 731"><path fill="#ffc10e" d="m63.881 125.686-.17-.176 95.791-90.943.17.176Z" data-name="Path 33835"/></g><g data-name="Group 732"><path fill="#ffc10e" d="m64.454 126.282-.17-.176 95.789-90.944.17.176Z" data-name="Path 33836"/></g><g data-name="Group 733"><path fill="#ffc10e" d="m65.596 127.471-.17-.176 95.791-90.944.169.176Z" data-name="Path 33837"/></g><g data-name="Group 734"><path fill="#ffc10e" d="m65.024 126.875-.171-.176 95.791-90.943.169.176Z" data-name="Path 33838"/></g><g data-name="Group 735"><path fill="#ffc10e" d="m66.168 128.065-.17-.174 95.791-90.944.169.176Z" data-name="Path 33839"/></g><g data-name="Group 736"><path fill="#ffc10e" d="m66.74 128.66-.17-.176 95.789-90.943.169.176Z" data-name="Path 33840"/></g><g data-name="Group 737"><path fill="#ffc10e" d="m67.311 129.256-.169-.176 95.791-90.944.169.176Z" data-name="Path 33841"/></g><g data-name="Group 738"><path fill="#ffc10e" d="m67.883 129.851-.17-.176 95.789-90.944.17.176Z" data-name="Path 33842"/></g><g data-name="Group 739"><path fill="#ffc10e" d="m68.455 130.445-.17-.176 95.789-90.943.17.176Z" data-name="Path 33843"/></g><g data-name="Group 740"><path fill="#ffc10e" d="m69.026 131.043-.171-.176 95.793-90.945.169.174Z" data-name="Path 33844"/></g><g data-name="Group 741"><path fill="#ffc10e" d="m-45.025 12.328-.168-.176 95.791-90.944.17.176Z" data-name="Path 33845"/></g><g data-name="Group 742"><path fill="#ffc10e" d="M-44.649 12.715 51.25-78.14l.168.177-95.899 90.855Z" data-name="Path 34052"/></g><g data-name="Group 743"><path fill="#ffc10e" d="m-44.093 13.299 95.9-90.856.168.176-95.9 90.857Z" data-name="Path 34053"/></g><g data-name="Group 744"><path fill="#ffc10e" d="m-43.307 14.113-.168-.176 95.789-90.944.17.176Z" data-name="Path 33846"/></g><g data-name="Group 745"><path fill="#ffc10e" d="m-42.736 14.709-.17-.176 95.791-90.944.168.176Z" data-name="Path 33847"/></g><g data-name="Group 746"><path fill="#ffc10e" d="m-42.164 15.304-.17-.176 95.791-90.944.168.176Z" data-name="Path 33848"/></g><g data-name="Group 747"><path fill="#ffc10e" d="m-41.832 15.654 95.9-90.857.17.177-95.902 90.857Z" data-name="Path 34054"/></g><g data-name="Group 748"><path fill="#ffc10e" d="m-41.024 16.494-.168-.176 95.791-90.944.17.176Z" data-name="Path 33849"/></g><g data-name="Group 749"><path fill="#ffc10e" d="m-40.662 16.868 95.9-90.856.168.176-95.9 90.857Z" data-name="Path 34055"/></g><g data-name="Group 750"><path fill="#ffc10e" d="m-39.877 17.685-.168-.176 95.791-90.944.168.176Z" data-name="Path 33850"/></g><g data-name="Group 751"><path fill="#ffc10e" d="m-39.307 18.279-.168-.176 95.789-90.944.17.176Z" data-name="Path 33851"/></g><g data-name="Group 752"><path fill="#ffc10e" d="m-38.959 18.641 95.9-90.857.17.177-95.902 90.857Z" data-name="Path 34056"/></g><g data-name="Group 753"><path fill="#ffc10e" d="m-38.163 19.468-.168-.176L57.46-71.651l.168.176Z" data-name="Path 33852"/></g><g data-name="Group 754"><path fill="#ffc10e" d="m-37.79 19.857 95.9-90.856.168.176-95.9 90.857Z" data-name="Path 34057"/></g><g data-name="Group 755"><path fill="#ffc10e" d="m-37.232 20.438 95.9-90.856.168.176-95.9 90.857Z" data-name="Path 34058"/></g><g data-name="Group 756"><path fill="#ffc10e" d="m-36.448 21.255-.17-.176 95.792-90.944.168.176Z" data-name="Path 33853"/></g><g data-name="Group 757"><path fill="#ffc10e" d="m-36.062 21.657 95.823-90.911.168.176-95.823 90.912Z" data-name="Path 34059"/></g><g data-name="Group 758"><path fill="#ffc10e" d="m-35.521 22.224 95.9-90.856.168.176-95.9 90.857Z" data-name="Path 34060"/></g><g data-name="Group 759"><path fill="#ffc10e" d="m-34.944 22.818 95.9-90.856.168.176-95.9 90.857Z" data-name="Path 34061"/></g><g data-name="Group 760"><path fill="#ffc10e" d="m-34.163 23.635-.168-.176L61.46-67.484l.17.174Z" data-name="Path 33854"/></g><g data-name="Group 761"><path fill="#ffc10e" d="m-33.019 24.825-.17-.176 95.791-90.943.17.174Z" data-name="Path 33855"/></g><g data-name="Group 762"><path fill="#ffc10e" d="m-31.874 26.014-.17-.176 95.791-90.945.17.176Z" data-name="Path 33856"/></g><g data-name="Group 763"><path fill="#ffc10e" d="m-30.943 26.982 95.9-90.856.168.176-95.9 90.857Z" data-name="Path 34062"/></g><g data-name="Group 764"><path fill="#ffc10e" d="m-29.804 28.174 95.9-90.856.168.176-95.9 90.857Z" data-name="Path 34063"/></g><g data-name="Group 765"><path fill="#ffc10e" d="m-28.445 29.584-.17-.176 95.791-90.943.17.176Z" data-name="Path 33857"/></g><g data-name="Group 766"><path fill="#ffc10e" d="m-27.519 30.554 95.9-90.856.168.176-95.9 90.857Z" data-name="Path 34064"/></g><g data-name="Group 767"><path fill="#ffc10e" d="m-26.374 31.744 95.9-90.856.168.176-95.9 90.857Z" data-name="Path 34065"/></g><g data-name="Group 768"><path fill="#ffc10e" d="m-25.231 32.934 95.9-90.856.168.176-95.9 90.857Z" data-name="Path 34066"/></g><g data-name="Group 769"><path fill="#ffc10e" d="m-23.872 34.347-.168-.176 95.789-90.947.17.174Z" data-name="Path 33858"/></g><g data-name="Group 770"><path fill="#ffc10e" d="m-22.943 35.315 95.9-90.856.168.176-95.9 90.857Z" data-name="Path 34067"/></g><g data-name="Group 771"><path fill="#ffc10e" d="m-21.774 36.53 95.899-90.855.168.177-95.899 90.855Z" data-name="Path 34068"/></g><g data-name="Group 772"><path fill="#ffc10e" d="m-20.654 37.694 95.9-90.856.168.176-95.9 90.857Z" data-name="Path 34069"/></g><g data-name="Group 773"><path fill="#ffc10e" d="m-19.298 39.106-.17-.176 95.791-90.945.17.176Z" data-name="Path 33859"/></g><g data-name="Group 774"><path fill="#ffc10e" d="m-18.346 40.097 95.835-90.898.169.177-95.836 90.898Z" data-name="Path 34070"/></g><g data-name="Group 775"><path fill="#ffc10e" d="m-17.201 41.292 95.9-90.856.168.176-95.9 90.857Z" data-name="Path 34071"/></g><g data-name="Group 776"><path fill="#ffc10e" d="m-15.869 42.676-.17-.176 95.791-90.943.17.176Z" data-name="Path 33860"/></g><g data-name="Group 777"><path fill="#ffc10e" d="m-14.937 43.647 95.9-90.856.168.176-95.9 90.857Z" data-name="Path 34072"/></g><g data-name="Group 778"><path fill="#ffc10e" d="m-13.794 44.838 95.9-90.856.168.176-95.9 90.857Z" data-name="Path 34073"/></g><g data-name="Group 779"><path fill="#ffc10e" d="m-12.653 46.024 95.9-90.856.168.176-95.9 90.857Z" data-name="Path 34074"/></g><g data-name="Group 780"><path fill="#ffc10e" d="m-11.509 47.216 95.9-90.856.168.176-95.9 90.857Z" data-name="Path 34075"/></g><g data-name="Group 781"><path fill="#ffc10e" d="m-10.34 48.433 95.899-90.855.168.177-95.899 90.855Z" data-name="Path 34076"/></g><g data-name="Group 782"><path fill="#ffc10e" d="m-9.008 49.816-.168-.176 95.789-90.943.17.174Z" data-name="Path 33861"/></g><g data-name="Group 783"><path fill="#ffc10e" d="M-8.076 50.785 87.823-40.07l.168.177-95.899 90.855Z" data-name="Path 34077"/></g><g data-name="Group 784"><path fill="#ffc10e" d="m-6.721 52.199-.17-.176L88.9-38.924l.171.176Z" data-name="Path 33862"/></g><g data-name="Group 785"><path fill="#ffc10e" d="m-5.793 53.166 95.9-90.856.168.176-95.9 90.857Z" data-name="Path 34078"/></g><g data-name="Group 786"><path fill="#ffc10e" d="m-4.434 54.577-.17-.176 95.791-90.945.17.176Z" data-name="Path 33863"/></g><g data-name="Group 787"><path fill="#ffc10e" d="m-3.292 55.767-.168-.179 95.791-90.94.17.176Z" data-name="Path 33864"/></g><g data-name="Group 788"><path fill="#ffc10e" d="m-2.361 56.736 95.9-90.856.168.177-95.9 90.856Z" data-name="Path 34079"/></g><g data-name="Group 789"><path fill="#ffc10e" d="m-1.005 58.146-.168-.176 95.79-90.944.171.176Z" data-name="Path 33865"/></g><g data-name="Group 790"><path fill="#ffc10e" d="m-.075 59.117 95.9-90.856.168.176-95.9 90.857Z" data-name="Path 34080"/></g><g data-name="Group 791"><path fill="#ffc10e" d="m1.282 60.528-.17-.176 95.791-90.945.17.176Z" data-name="Path 33866"/></g><g data-name="Group 792"><path fill="#ffc10e" d="m2.426 61.717-.17-.176 95.79-90.943.171.176Z" data-name="Path 33867"/></g><g data-name="Group 793"><path fill="#ffc10e" d="m3.356 62.686 95.9-90.856.168.176-95.9 90.857Z" data-name="Path 34081"/></g><g data-name="Group 794"><path fill="#ffc10e" d="m4.711 64.098-.168-.179 95.791-90.94.17.174Z" data-name="Path 33868"/></g><g data-name="Group 795"><path fill="#ffc10e" d="m5.855 65.287-.168-.176 95.789-90.943.17.176Z" data-name="Path 33869"/></g><g data-name="Group 796"><path fill="#ffc10e" d="m6.788 66.258 95.9-90.856.168.176-95.9 90.857Z" data-name="Path 34082"/></g><g data-name="Group 797"><path fill="#ffc10e" d="m7.93 67.449 95.9-90.856.168.176-95.9 90.857Z" data-name="Path 34083"/></g><g data-name="Group 798"><path fill="#ffc10e" d="m9.074 68.636 95.9-90.856.168.176-95.9 90.857Z" data-name="Path 34084"/></g><g data-name="Group 799"><path fill="#ffc10e" d="m10.429 70.05-.168-.176 95.789-90.947.17.176Z" data-name="Path 33870"/></g><g data-name="Group 800"><path fill="#ffc10e" d="m11.385 71.045 95.9-90.856.168.176-95.9 90.857Z" data-name="Path 34085"/></g><g data-name="Group 801"><path fill="#ffc10e" d="m12.716 72.429-.17-.176 95.791-90.945.17.176Z" data-name="Path 33871"/></g><g data-name="Group 802"><path fill="#ffc10e" d="m13.647 73.398 95.9-90.856.168.176-95.9 90.857Z" data-name="Path 34086"/></g><g data-name="Group 803"><path fill="#ffc10e" d="m14.79 74.584 95.9-90.856.168.176-95.9 90.857Z" data-name="Path 34087"/></g><g data-name="Group 804"><path fill="#ffc10e" d="m15.959 75.806 95.9-90.856.168.176-95.9 90.857Z" data-name="Path 34088"/></g><g data-name="Group 805"><path fill="#ffc10e" d="m17.289 77.19-.17-.176 95.791-90.945.17.176Z" data-name="Path 33872"/></g><g data-name="Group 806"><path fill="#ffc10e" d="m18.22 78.155 95.9-90.856.168.176-95.9 90.857Z" data-name="Path 34089"/></g><g data-name="Group 807"><path fill="#ffc10e" d="m19.364 79.35 95.9-90.856.168.176-95.9 90.857Z" data-name="Path 34090"/></g><g data-name="Group 808"><path fill="#ffc10e" d="m20.719 80.76-.168-.176 95.789-90.945.17.176Z" data-name="Path 33873"/></g><g data-name="Group 809"><path fill="#ffc10e" d="m21.863 81.949-.17-.176L117.482-9.17l.171.174Z" data-name="Path 33874"/></g><g data-name="Group 810"><path fill="#ffc10e" d="m22.794 82.914 95.899-90.855.168.177L22.962 83.09Z" data-name="Path 34091"/></g><g data-name="Group 811"><path fill="#ffc10e" d="m23.939 84.111 95.899-90.855.168.177-95.899 90.855Z" data-name="Path 34092"/></g><g data-name="Group 812"><path fill="#ffc10e" d="m25.29 85.519-.168-.174 95.791-90.944.17.174Z" data-name="Path 33875"/></g><g data-name="Group 813"><path fill="#ffc10e" d="m26.437 86.71-.17-.176 95.791-90.943.17.174Z" data-name="Path 33876"/></g><g data-name="Group 814"><path fill="#ffc10e" d="m27.368 87.681 95.9-90.856.168.176-95.9 90.857Z" data-name="Path 34093"/></g><g data-name="Group 815"><path fill="#ffc10e" d="m28.724 89.091-.17-.176 95.79-90.945.169.176Z" data-name="Path 33877"/></g><g data-name="Group 816"><path fill="#ffc10e" d="m29.866 90.28-.168-.176L125.487-.839l.171.176Z" data-name="Path 33878"/></g><g data-name="Group 817"><path fill="#ffc10e" d="m-33.78 24.036 95.9-90.856.168.176-95.9 90.857Z" data-name="Path 34094"/></g><g data-name="Group 818"><path fill="#ffc10e" d="m-32.449 25.421-.168-.176L63.174-65.7l.17.176Z" data-name="Path 33879"/></g><g data-name="Group 819"><path fill="#ffc10e" d="m-31.52 26.387 95.9-90.856.168.176-95.9 90.857Z" data-name="Path 34095"/></g><g data-name="Group 820"><path fill="#ffc10e" d="m-30.376 27.578 95.9-90.856.168.177-95.9 90.856Z" data-name="Path 34096"/></g><g data-name="Group 821"><path fill="#ffc10e" d="m-29.233 28.768 95.9-90.856.168.176-95.9 90.857Z" data-name="Path 34097"/></g><g data-name="Group 822"><path fill="#ffc10e" d="m-28.086 29.958 95.9-90.856.168.176-95.9 90.857Z" data-name="Path 34098"/></g><g data-name="Group 823"><path fill="#ffc10e" d="m-26.729 31.369-.17-.176L68.89-59.751l.17.176Z" data-name="Path 33880"/></g><g data-name="Group 824"><path fill="#ffc10e" d="m-25.776 32.364 95.899-90.855.168.177-95.899 90.855Z" data-name="Path 34099"/></g><g data-name="Group 825"><path fill="#ffc10e" d="m-24.632 33.557 95.9-90.856.168.176-95.9 90.857Z" data-name="Path 34100"/></g><g data-name="Group 826"><path fill="#ffc10e" d="m-23.511 34.721 95.9-90.856.168.176-95.9 90.857Z" data-name="Path 34101"/></g><g data-name="Group 827"><path fill="#ffc10e" d="m-22.157 36.13-.168-.176 95.791-90.945.17.176Z" data-name="Path 33881"/></g><g data-name="Group 828"><path fill="#ffc10e" d="m-19.87 38.511-.17-.176L75.751-52.61l.17.176Z" data-name="Path 33882"/></g><g data-name="Group 829"><path fill="#ffc10e" d="M-17.775 40.691 78.06-50.207l.169.177-95.836 90.898Z" data-name="Path 34102"/></g><g data-name="Group 830"><path fill="#ffc10e" d="m-15.298 43.272-.168-.176 95.791-90.945.17.176Z" data-name="Path 33883"/></g><g data-name="Group 831"><path fill="#ffc10e" d="m-13.221 45.43 95.9-90.856.168.176-95.9 90.857Z" data-name="Path 34103"/></g><g data-name="Group 832"><path fill="#ffc10e" d="m-10.723 48.029-.17-.174L84.899-43.09l.17.176Z" data-name="Path 33884"/></g><g data-name="Group 833"><path fill="#ffc10e" d="m-8.436 50.412-.168-.176 95.789-90.945.17.176Z" data-name="Path 33885"/></g><g data-name="Group 834"><path fill="#ffc10e" d="m-6.362 52.57 95.9-90.856.168.176-95.9 90.857Z" data-name="Path 34104"/></g><g data-name="Group 835"><path fill="#ffc10e" d="m-3.862 55.171-.17-.176 95.791-90.943.17.176Z" data-name="Path 33886"/></g><g data-name="Group 836"><path fill="#ffc10e" d="M-1.763 57.359 94.06-33.552l.168.176-95.823 90.912Z" data-name="Path 34105"/></g><g data-name="Group 837"><path fill="#ffc10e" d="m.711 59.932-.17-.176 95.79-90.943.171.176Z" data-name="Path 33887"/></g><g data-name="Group 838"><path fill="#ffc10e" d="m2.998 62.313-.17-.176 95.789-90.945.17.176Z" data-name="Path 33888"/></g><g data-name="Group 839"><path fill="#ffc10e" d="m5.096 64.498 95.9-90.856.168.176-95.9 90.857Z" data-name="Path 34106"/></g><g data-name="Group 840"><path fill="#ffc10e" d="m7.57 67.072-.17-.174 95.79-90.945.17.174Z" data-name="Path 33889"/></g><g data-name="Group 841"><path fill="#ffc10e" d="m9.645 69.229 95.9-90.856.168.176-95.9 90.857Z" data-name="Path 34107"/></g><g data-name="Group 842"><path fill="#ffc10e" d="m12.144 71.833-.168-.174 95.791-90.945.17.174Z" data-name="Path 33890"/></g><g data-name="Group 843"><path fill="#ffc10e" d="m14.432 74.215-.168-.176 95.787-90.944.17.176Z" data-name="Path 33891"/></g><g data-name="Group 844"><path fill="#ffc10e" d="m16.506 76.373 95.9-90.856.168.176-95.9 90.857Z" data-name="Path 34108"/></g><g data-name="Group 845"><path fill="#ffc10e" d="m19.004 78.975-.17-.176 95.791-90.945.17.176Z" data-name="Path 33892"/></g><g data-name="Group 846"><path fill="#ffc10e" d="m-21.225 37.101 95.9-90.856.168.176-95.9 90.857Z" data-name="Path 34109"/></g><g data-name="Group 847"><path fill="#ffc10e" d="m-18.942 39.48 95.9-90.856.168.176-95.9 90.857Z" data-name="Path 34110"/></g><g data-name="Group 848"><path fill="#ffc10e" d="m-16.441 42.081-.168-.174L79.182-49.04l.17.176Z" data-name="Path 33893"/></g><g data-name="Group 849"><path fill="#ffc10e" d="m-14.154 44.461-.17-.176 95.791-90.943.17.176Z" data-name="Path 33894"/></g><g data-name="Group 850"><path fill="#ffc10e" d="m-11.865 46.842-.17-.179 95.789-90.94.17.174Z" data-name="Path 33895"/></g><g data-name="Group 851"><path fill="#ffc10e" d="m-9.793 49.002 95.9-90.856.168.176-95.9 90.857Z" data-name="Path 34111"/></g><g data-name="Group 852"><path fill="#ffc10e" d="m-7.294 51.603-.168-.176 95.791-90.945.17.176Z" data-name="Path 33896"/></g><g data-name="Group 853"><path fill="#ffc10e" d="m-5.194 53.788 95.9-90.856.168.176-95.9 90.857Z" data-name="Path 34112"/></g><g data-name="Group 854"><path fill="#ffc10e" d="m-2.72 56.362-.17-.181 95.791-90.94.17.176Z" data-name="Path 33897"/></g><g data-name="Group 855"><path fill="#ffc10e" d="m-.621 58.547 95.9-90.856.168.176-95.9 90.857Z" data-name="Path 34113"/></g><g data-name="Group 856"><path fill="#ffc10e" d="m1.854 61.121-.168-.176 95.789-90.943.17.176Z" data-name="Path 33898"/></g><g data-name="Group 857"><path fill="#ffc10e" d="m3.928 63.281 95.9-90.856.168.177-95.9 90.856Z" data-name="Path 34114"/></g><g data-name="Group 858"><path fill="#ffc10e" d="m6.215 65.664 95.9-90.856.168.176-95.9 90.857Z" data-name="Path 34115"/></g><g data-name="Group 859"><path fill="#ffc10e" d="m8.502 68.042 95.899-90.855.168.177L8.67 68.219Z" data-name="Path 34116"/></g><g data-name="Group 860"><path fill="#ffc10e" d="m10.788 70.423 95.9-90.856.168.176-95.9 90.857Z" data-name="Path 34117"/></g><g data-name="Group 861"><path fill="#ffc10e" d="m13.288 73.024-.17-.176 95.789-90.943.171.176Z" data-name="Path 33899"/></g><g data-name="Group 862"><path fill="#ffc10e" d="m15.573 75.403-.168-.174 95.791-90.945.17.176Z" data-name="Path 33900"/></g><g data-name="Group 863"><path fill="#ffc10e" d="m17.862 77.786-.168-.176 95.789-90.945.17.176Z" data-name="Path 33901"/></g><g data-name="Group 864"><path fill="#ffc10e" d="m20.148 80.164-.17-.176 95.789-90.945.171.176Z" data-name="Path 33902"/></g><g data-name="Group 865"><path fill="#ffc10e" d="m21.08 81.132 95.899-90.855.168.177-95.899 90.855Z" data-name="Path 34118"/></g><g data-name="Group 866"><path fill="#ffc10e" d="m22.433 82.546-.168-.176 95.791-90.944.17.174Z" data-name="Path 33903"/></g><g data-name="Group 867"><path fill="#ffc10e" d="M23.366 83.515 119.265-7.34l.168.177-95.899 90.855Z" data-name="Path 34119"/></g><g data-name="Group 868"><path fill="#ffc10e" d="m24.51 84.703 95.9-90.856.168.176-95.9 90.857Z" data-name="Path 34120"/></g><g data-name="Group 869"><path fill="#ffc10e" d="m25.652 85.893 95.9-90.856.168.176-95.9 90.857Z" data-name="Path 34121"/></g><g data-name="Group 870"><path fill="#ffc10e" d="m27.007 87.306-.17-.176 95.791-90.944.17.176Z" data-name="Path 33904"/></g><g data-name="Group 871"><path fill="#ffc10e" d="m29.294 89.685-.168-.176 95.791-90.943.169.174Z" data-name="Path 33905"/></g><g data-name="Group 872"><path fill="#ffc10e" d="m28.151 88.493-.168-.174 95.789-90.944.17.176Z" data-name="Path 33906"/></g><g data-name="Group 873"><path fill="#ffc10e" d="m30.253 90.682 95.9-90.856.168.176-95.9 90.857Z" data-name="Path 34122"/></g><g data-name="Group 874"><path fill="#ffc10e" d="m31.581 92.064-.168-.176L127.202.944l.171.176Z" data-name="Path 33907"/></g><g data-name="Group 875"><path fill="#ffc10e" d="m32.725 93.254-.17-.174 95.791-90.945.17.176Z" data-name="Path 33908"/></g><g data-name="Group 876"><path fill="#ffc10e" d="m33.657 94.22 95.9-90.856.168.176-95.9 90.857Z" data-name="Path 34123"/></g><g data-name="Group 877"><path fill="#ffc10e" d="M34.817 95.438 130.652 4.54l.169.177-95.836 90.898Z" data-name="Path 34124"/></g><g data-name="Group 878"><path fill="#ffc10e" d="m35.945 96.603 95.9-90.856.168.176-95.9 90.857Z" data-name="Path 34125"/></g><g data-name="Group 879"><path fill="#ffc10e" d="m31.008 91.47-.168-.176L126.629.351l.17.176Z" data-name="Path 33909"/></g><g data-name="Group 880"><path fill="#ffc10e" d="m32.153 92.659-.17-.174 95.79-90.943.17.176Z" data-name="Path 33910"/></g><g data-name="Group 881"><path fill="#ffc10e" d="m33.086 93.63 95.9-90.856.168.176-95.9 90.857Z" data-name="Path 34126"/></g><g data-name="Group 882"><path fill="#ffc10e" d="m34.23 94.819 95.9-90.856.168.176-95.9 90.857Z" data-name="Path 34127"/></g><g data-name="Group 883"><path fill="#ffc10e" d="m35.582 96.231-.168-.176 95.789-90.944.17.176Z" data-name="Path 33911"/></g><g data-name="Group 884"><path fill="#ffc10e" d="m36.724 97.42-.168-.176L132.347 6.3l.17.176Z" data-name="Path 33912"/></g><g data-name="Group 885"><path fill="#ffc10e" d="m37.086 97.797 95.9-90.856.168.176-95.9 90.857Z" data-name="Path 34128"/></g><g data-name="Group 886"><path fill="#ffc10e" d="m37.869 98.611-.168-.176L133.49 7.491l.17.176Z" data-name="Path 33913"/></g><g data-name="Group 887"><path fill="#ffc10e" d="m38.23 98.986 95.899-90.855.168.177-95.899 90.855Z" data-name="Path 34129"/></g><g data-name="Group 888"><path fill="#ffc10e" d="m38.802 99.578 95.899-90.855.168.177L38.97 99.755Z" data-name="Path 34130"/></g><g data-name="Group 889"><path fill="#ffc10e" d="m39.584 100.395-.17-.176 95.793-90.943.169.176Z" data-name="Path 33914"/></g><g data-name="Group 890"><path fill="#ffc10e" d="m40.544 101.391 95.899-90.855.168.177-95.899 90.855Z" data-name="Path 34131"/></g><g data-name="Group 891"><path fill="#ffc10e" d="m41.659 102.557 95.899-90.855.168.177-95.899 90.855Z" data-name="Path 34132"/></g><g data-name="Group 892"><path fill="#ffc10e" d="m43.015 103.966-.168-.176 95.789-90.943.17.174Z" data-name="Path 33915"/></g><g data-name="Group 893"><path fill="#ffc10e" d="m43.947 104.933 95.899-90.855.168.177-95.899 90.855Z" data-name="Path 34133"/></g><g data-name="Group 894"><path fill="#ffc10e" d="m45.093 106.125 95.9-90.856.168.176-95.9 90.857Z" data-name="Path 34134"/></g><g data-name="Group 895"><path fill="#ffc10e" d="m46.444 107.538-.168-.176 95.79-90.944.17.174Z" data-name="Path 33916"/></g><g data-name="Group 896"><path fill="#ffc10e" d="m47.588 108.726-.17-.176 95.791-90.944.17.176Z" data-name="Path 33917"/></g><g data-name="Group 897"><path fill="#ffc10e" d="m48.731 109.919-.168-.176 95.791-90.945.17.176Z" data-name="Path 33918"/></g><g data-name="Group 898"><path fill="#ffc10e" d="m49.691 110.912 95.899-90.855.168.177-95.899 90.855Z" data-name="Path 34135"/></g><g data-name="Group 899"><path fill="#ffc10e" d="m50.806 112.077 95.899-90.855.168.177-95.899 90.855Z" data-name="Path 34136"/></g><g data-name="Group 900"><path fill="#ffc10e" d="m52.16 113.486-.168-.176 95.791-90.943.17.176Z" data-name="Path 33919"/></g><g data-name="Group 901"><path fill="#ffc10e" d="m53.305 114.678-.169-.176 95.791-90.944.169.176Z" data-name="Path 33920"/></g><g data-name="Group 902"><path fill="#ffc10e" d="m54.235 115.641 95.899-90.855.168.177-95.899 90.855Z" data-name="Path 34137"/></g><g data-name="Group 903"><path fill="#ffc10e" d="m55.404 116.861 95.821-90.91.169.177-95.822 90.91Z" data-name="Path 34138"/></g><g data-name="Group 904"><path fill="#ffc10e" d="m56.547 118.052 95.823-90.911.168.176-95.823 90.912Z" data-name="Path 34139"/></g><g data-name="Group 905"><path fill="#ffc10e" d="m57.878 119.437-.17-.176 95.791-90.943.17.176Z" data-name="Path 33921"/></g><g data-name="Group 906"><path fill="#ffc10e" d="m58.809 120.4 95.9-90.856.168.176-95.9 90.857Z" data-name="Path 34140"/></g><g data-name="Group 907"><path fill="#ffc10e" d="m60.165 121.818-.17-.176 95.79-90.945.17.176Z" data-name="Path 33922"/></g><g data-name="Group 908"><path fill="#ffc10e" d="m40.156 100.99-.168-.176 95.789-90.943.17.176Z" data-name="Path 33923"/></g><g data-name="Group 909"><path fill="#ffc10e" d="m41.3 102.181-.168-.176 95.789-90.945.169.176Z" data-name="Path 33924"/></g><g data-name="Group 910"><path fill="#ffc10e" d="m42.232 103.152 95.9-90.856.168.176-95.9 90.857Z" data-name="Path 34141"/></g><g data-name="Group 911"><path fill="#ffc10e" d="m43.379 104.34 95.9-90.856.168.177-95.9 90.856Z" data-name="Path 34142"/></g><g data-name="Group 912"><path fill="#ffc10e" d="m44.537 105.554 95.835-90.898.169.177-95.836 90.898Z" data-name="Path 34143"/></g><g data-name="Group 913"><path fill="#ffc10e" d="m45.874 106.942-.17-.176 95.791-90.943.17.176Z" data-name="Path 33925"/></g><g data-name="Group 914"><path fill="#ffc10e" d="m46.806 107.912 95.9-90.856.168.176-95.9 90.857Z" data-name="Path 34144"/></g><g data-name="Group 915"><path fill="#ffc10e" d="m48.159 109.32-.168-.176L143.782 18.2l.17.176Z" data-name="Path 33926"/></g><g data-name="Group 916"><path fill="#ffc10e" d="m49.092 110.286 95.9-90.856.168.176-95.9 90.857Z" data-name="Path 34145"/></g><g data-name="Group 917"><path fill="#ffc10e" d="m50.234 111.476 95.899-90.855.168.177-95.899 90.855Z" data-name="Path 34146"/></g><g data-name="Group 918"><path fill="#ffc10e" d="m51.59 112.893-.17-.176 95.789-90.944.171.176Z" data-name="Path 33927"/></g><g data-name="Group 919"><path fill="#ffc10e" d="m52.732 114.082-.168-.176 95.789-90.943.171.176Z" data-name="Path 33928"/></g><g data-name="Group 920"><path fill="#ffc10e" d="m53.875 115.271-.168-.176 95.791-90.943.171.174Z" data-name="Path 33929"/></g><g data-name="Group 921"><path fill="#ffc10e" d="m54.835 116.268 95.9-90.856.168.176-95.9 90.857Z" data-name="Path 34147"/></g><g data-name="Group 922"><path fill="#ffc10e" d="m55.956 117.431 95.9-90.856.168.177-95.9 90.856Z" data-name="Path 34148"/></g><g data-name="Group 923"><path fill="#ffc10e" d="m57.098 118.621 95.9-90.856.168.177-95.9 90.856Z" data-name="Path 34149"/></g><g data-name="Group 924"><path fill="#ffc10e" d="m58.237 119.813 95.899-90.855.168.177-95.899 90.855Z" data-name="Path 34150"/></g><g data-name="Group 925"><path fill="#ffc10e" d="m59.401 121.023 95.834-90.897.168.177L59.57 121.2Z" data-name="Path 34151"/></g><g data-name="Group 926"><path fill="#ffc10e" d="m60.737 122.415-.17-.176 95.791-90.944.17.176Z" data-name="Path 33930"/></g><g data-name="Group 927"><path fill="#ffc10e" d="m61.307 123.007-.17-.176 95.791-90.943.171.176Z" data-name="Path 33931"/></g><g data-name="Group 928"><path fill="#ffc10e" d="m61.88 123.603-.17-.176 95.79-90.945.171.176Z" data-name="Path 33932"/></g><g data-name="Group 929"><path fill="#ffc10e" d="m62.452 124.198-.17-.176 95.791-90.943.17.176Z" data-name="Path 33933"/></g><g data-name="Group 930"><path fill="#ffc10e" d="m63.024 124.794-.17-.176 95.791-90.944.17.176Z" data-name="Path 33934"/></g><g data-name="Group 931"><path fill="#ffc10e" d="m63.596 125.388-.17-.176 95.791-90.944.17.176Z" data-name="Path 33935"/></g><g data-name="Group 932"><path fill="#ffc10e" d="m64.167 125.982-.17-.176 95.791-90.944.172.176Z" data-name="Path 33936"/></g><g data-name="Group 933"><path fill="#ffc10e" d="m65.311 127.174-.17-.176 95.791-90.945.17.176Z" data-name="Path 33937"/></g><g data-name="Group 934"><path fill="#ffc10e" d="m64.738 126.577-.171-.176 95.792-90.941.17.176Z" data-name="Path 33938"/></g><g data-name="Group 935"><path fill="#ffc10e" d="m65.883 127.768-.171-.176 95.792-90.943.17.176Z" data-name="Path 33939"/></g><g data-name="Group 936"><path fill="#ffc10e" d="m66.453 128.364-.17-.176 95.791-90.944.17.176Z" data-name="Path 33940"/></g><g data-name="Group 937"><path fill="#ffc10e" d="m67.024 128.959-.169-.176 95.789-90.945.169.176Z" data-name="Path 33941"/></g><g data-name="Group 938"><path fill="#ffc10e" d="m67.598 129.553-.17-.174 95.791-90.944.169.176Z" data-name="Path 33942"/></g><g data-name="Group 939"><path fill="#ffc10e" d="m68.17 130.149-.17-.176 95.789-90.943.171.174Z" data-name="Path 33943"/></g><g data-name="Group 940"><path fill="#ffc10e" d="m68.74 130.744-.17-.176 95.791-90.943.17.174Z" data-name="Path 33944"/></g></g></g></svg>